<svg id="Layer_1" data-name="Layer 1" xmlns="http://www.w3.org/2000/svg" viewBox="0 0 1203.28 575.13"><defs><style>.cls-1{fill:#8c528c;}.cls-2{fill:#8775bd;}.cls-3{fill:#adc8e6;}.cls-4{fill:#56c1bf;}.cls-5{fill:#2ea690;}.cls-6{fill:#81dec8;}.cls-7{fill:#a2ebda;}.cls-8{fill:#ff7a7f;}.cls-9{fill:#f2666d;}.cls-10{fill:#ffb0bc;}.cls-11{fill:#ffdbdb;}.cls-12{fill:#68cb88;}.cls-13{fill:#ffa252;}.cls-14{fill:#ffc38f;}.cls-15{fill:#cfedab;}.cls-16{fill:#f9d4b2;}.cls-17{fill:#fff;}</style></defs><path d="M420.31,304.46V213.93h10.08v90.53Z"/><path d="M460.6,304.46h-9.81V239.05h9.68v4.57q10.61-5.88,20.28-5.88,13.08,0,17.6,7.06t4.51,25.12v34.54h-9.68V270.18q0-13.6-2.68-18.64t-11.45-5a34.51,34.51,0,0,0-8.83,1.24,43.58,43.58,0,0,0-7.13,2.43l-2.49,1.17Z"/><path d="M554.54,247.55H533.73v31.27q0,11.25,1.64,14.78t7.78,3.53l11.65-.78.65,8.11a89.37,89.37,0,0,1-13.34,1.44q-10.22,0-14.13-5t-3.93-19v-34.4h-9.28v-8.5h9.28V219h9.68v20h20.81Z"/><path d="M611.05,296.35l3.79-.4.27,7.72a187.14,187.14,0,0,1-25.52,2.09q-14.12,0-20-8.17t-5.89-25.45q0-34.39,27.34-34.4,13.22,0,19.76,7.39t6.54,23.22l-.52,7.46H573.63q0,10.86,3.93,16.09t13.67,5.23Q601,297.13,611.05,296.35ZM607.52,268q0-12-3.86-17t-12.56-5q-8.7,0-13.08,5.23T573.5,268Z"/><path d="M632.63,304.46V239.05h9.68v8.89a63.64,63.64,0,0,1,24-10.33v9.94a70.85,70.85,0,0,0-11.45,3.27,75.75,75.75,0,0,0-9.09,3.92l-3.27,1.7v48Z"/><path d="M678.68,304.46V210.53h9.82v93.93Z"/><path d="M752.6,296.35l3.79-.4.26,7.72a186.89,186.89,0,0,1-25.51,2.09q-14.13,0-20-8.17t-5.89-25.45q0-34.39,27.34-34.4,13.21,0,19.76,7.39t6.54,23.22l-.53,7.46H715.18q0,10.86,3.93,16.09t13.67,5.23Q742.52,297.13,752.6,296.35ZM749.06,268q0-12-3.85-17t-12.56-5q-8.7,0-13.09,5.23T715.05,268Z"/><path d="M824.42,210.53v93.93h-9.68V300q-10.08,5.76-19.89,5.75a29.09,29.09,0,0,1-9.16-1.3,18.82,18.82,0,0,1-7.32-4.71q-7.07-7.06-7.07-26.1t6.35-27.48q6.35-8.43,21-8.43a81.77,81.77,0,0,1,16.09,1.7V210.53Zm-34,85.55a16.83,16.83,0,0,0,6.09.92,32.68,32.68,0,0,0,8.37-1.24,51.12,51.12,0,0,0,7.26-2.42l2.62-1.18V247.81a84.66,84.66,0,0,0-15.57-1.57q-9.95,0-13.87,6.34t-3.92,19.69q0,15.18,4.58,20.41A11.18,11.18,0,0,0,790.4,296.08Z"/><path d="M868.63,335.2q-15.69,0-21.91-4.25t-6.21-15.5a14.75,14.75,0,0,1,2.35-8.7,36.4,36.4,0,0,1,8-7.53q-3.66-2.48-3.66-9,0-2.22,3.27-8.25l1.18-2.09q-10.33-4.71-10.34-19.75,0-22.38,24.47-22.37a48.7,48.7,0,0,1,11.64,1.31l2,.39,19.36-.53v8.38L886.3,247q4.31,4.32,4.31,13.09,0,12.3-6.08,17.2t-19.17,4.91a35.88,35.88,0,0,1-6.41-.53q-2.36,5.76-2.35,7.46,0,4.05,2.48,5t15,1q12.55,0,18,3.92t5.5,15.31Q897.68,335.21,868.63,335.2Zm-18.44-20.54q0,6.93,3.86,9.62T868.31,327q10.4,0,14.91-2.88t4.51-9.62q0-6.73-3.27-8.7t-12.82-2l-14.13-.65a23.15,23.15,0,0,0-5.82,5.49A11,11,0,0,0,850.19,314.66Zm.91-54.55q0,7.71,3.47,11T866,274.37q8,0,11.38-3.27T880.8,260q0-7.79-3.4-11.05T866,245.72q-8,0-11.45,3.33T851.1,260.11Z"/><path d="M955.11,296.35l3.79-.4.26,7.72a186.89,186.89,0,0,1-25.51,2.09q-14.13,0-20-8.17t-5.89-25.45q0-34.39,27.34-34.4,13.21,0,19.76,7.39t6.54,23.22l-.53,7.46H917.69q0,10.86,3.93,16.09t13.67,5.23Q945,297.13,955.11,296.35ZM951.58,268q0-12-3.86-17t-12.56-5q-8.7,0-13.09,5.23T917.56,268Z"/><path d="M976.69,304.46V239.05h9.68v8.89a63.67,63.67,0,0,1,23.94-10.33v9.94a71,71,0,0,0-11.44,3.27,76.76,76.76,0,0,0-9.1,3.92l-3.27,1.7v48Z"/><path d="M444.63,346.9H424.15v10.7h18.68v6.23H424.15v12.3h-7.26V340.62h27.74Z"/><path d="M469,376.75c-12.66,0-20.43-7.11-20.43-18.38S456.36,340,469,340s20.49,7.1,20.49,18.37S481.63,376.75,469,376.75Zm0-30.37c-7.92,0-13.07,4.58-13.07,11.94s5.15,11.89,13.13,11.89,13-4.58,13-11.89S477,346.38,469,346.38Z"/><path d="M532.48,358.48c0,11.27-5.61,18.27-18.17,18.27s-17.75-6.33-17.75-18.27V340.62h7.25v17.86c0,7.87,3.5,11.73,11,11.73,7.1,0,10.6-4,10.6-11.73V340.62h7.1Z"/><path d="M576.74,376.13h-7.31l-20.74-24.5h-.1v24.5h-7.26V340.62h7.31l20.74,24.5h.1v-24.5h7.26Z"/><path d="M601.39,376.13h-15.6V340.62h15.6c15.54,0,22.64,5.81,22.64,17.5C624,369.29,617,376.13,601.39,376.13ZM601,346.9h-7.93v22.85H601c11.11,0,15.59-4.22,15.59-11.58S612.3,346.9,601,346.9Z"/><path d="M665.82,376.13H657.9l-4.12-9.63H637.72l-4,9.63h-7.77l16-35.51h7.93Zm-20-28.72h-.1l-5.82,13.9h11.84Z"/><path d="M700.51,346.9h-15v29.23h-7.26V346.9h-15v-6.28h37.26Z"/><path d="M713.73,376.13h-7.25V340.62h7.25Z"/><path d="M741.89,376.75c-12.67,0-20.44-7.11-20.44-18.38S729.28,340,741.94,340s20.48,7.1,20.48,18.37S754.55,376.75,741.89,376.75Zm.05-30.37c-7.93,0-13.08,4.58-13.08,11.94S734,370.21,742,370.21s13-4.58,13-11.89S749.86,346.38,741.94,346.38Z"/><path d="M805.08,376.13h-7.3L777,351.63h-.1v24.5h-7.25V340.62H777l20.75,24.5h.1v-24.5h7.25Z"/><path class="cls-1" d="M219.87,360.06l-.06-.07a72.8,72.8,0,0,1-31.87-29.94h0a70,70,0,0,1-26-34.78,69.75,69.75,0,0,0,89.68,87.19A69.84,69.84,0,0,1,219.87,360.06Z"/><path class="cls-2" d="M283.23,359.7l0-.06-.09.05a72.6,72.6,0,0,1-63.25.36l-.12-.06.06.07a69.84,69.84,0,0,0,31.79,22.4A69.79,69.79,0,0,0,283.23,359.7Z"/><path class="cls-3" d="M219.93,360.05a72.6,72.6,0,0,0,63.25-.36,125,125,0,0,1-31.67-11.85A125,125,0,0,1,219.93,360.05Z"/><path class="cls-4" d="M340.39,294.29a69.75,69.75,0,0,1-88.73,88.17,69.79,69.79,0,0,0,31.57-22.76l0-.06a72.8,72.8,0,0,0,31.54-30.28h0A69.83,69.83,0,0,0,340.39,294.29Z"/><path class="cls-5" d="M314.67,259.68h0a72.56,72.56,0,0,1,.15,69.66v0h0a69.83,69.83,0,0,0,25.57-35.06A69.87,69.87,0,0,0,314.67,259.68Z"/><path class="cls-6" d="M314.82,329.34a72.56,72.56,0,0,0-.15-69.66A124.72,124.72,0,0,1,303,294.6,125.11,125.11,0,0,1,314.82,329.34Z"/><path class="cls-7" d="M303,294.6q-2.73,5.38-6,10.45a126.53,126.53,0,0,1-35.14,36.39q-5,3.45-10.38,6.4a125,125,0,0,0,31.67,11.85l.09-.05a72.8,72.8,0,0,0,31.54-30.28v0A125.11,125.11,0,0,0,303,294.6Z"/><path class="cls-8" d="M187.33,260.37a.47.47,0,0,1,0-.1,72.78,72.78,0,0,1,32-30.76h0a69.76,69.76,0,0,1,31.28-22.4A69.75,69.75,0,0,0,162,295.27,69.83,69.83,0,0,1,187.33,260.37Z"/><path class="cls-9" d="M187.93,330.05h0a72.53,72.53,0,0,1-.61-69.67A69.83,69.83,0,0,0,162,295.27,70,70,0,0,0,187.93,330.05Z"/><path class="cls-10" d="M187.39,260.32v-.05a.47.47,0,0,0,0,.1,72.53,72.53,0,0,0,.61,69.67,124.45,124.45,0,0,1,11.48-35A124.81,124.81,0,0,1,187.39,260.32Z"/><path class="cls-11" d="M241.06,341.54a126.4,126.4,0,0,1-35.59-36.09q-3.27-5-6.05-10.36a124.45,124.45,0,0,0-11.48,35h0A72.8,72.8,0,0,0,219.81,360l.12.06a125,125,0,0,0,31.58-12.21Q246.13,344.95,241.06,341.54Z"/><path class="cls-12" d="M250.71,207.1a69.75,69.75,0,0,1,89.68,87.19,69.87,69.87,0,0,0-25.72-34.61h0a72.75,72.75,0,0,0-32.4-30.5l0,0A69.81,69.81,0,0,0,250.71,207.1Z"/><path class="cls-13" d="M219.43,229.5a72.64,72.64,0,0,1,62.79-.35,69.81,69.81,0,0,0-31.51-22.05A69.76,69.76,0,0,0,219.43,229.5Z"/><path class="cls-14" d="M250.89,241.41a125.47,125.47,0,0,1,31.35-12.24h0l0,0a72.64,72.64,0,0,0-62.79.35h0A125.2,125.2,0,0,1,250.89,241.41Z"/><path class="cls-15" d="M250.89,241.41q5.55,3,10.75,6.54a126.68,126.68,0,0,1,35.27,36.12c2.19,3.4,4.22,6.92,6.08,10.53a124.72,124.72,0,0,0,11.68-34.92h0a72.75,72.75,0,0,0-32.4-30.5h0A125.47,125.47,0,0,0,250.89,241.41Z"/><path class="cls-16" d="M199.42,295.09q2.72-5.41,5.93-10.52a126.38,126.38,0,0,1,34.87-36.5q5.16-3.58,10.67-6.66a125.2,125.2,0,0,0-31.47-11.9h0a72.78,72.78,0,0,0-32,30.76v.05A124.81,124.81,0,0,0,199.42,295.09Z"/><path class="cls-17" d="M261.64,248q-5.19-3.52-10.75-6.54-5.5,3.08-10.67,6.66a126.38,126.38,0,0,0-34.87,36.5q-3.21,5.1-5.93,10.52,2.79,5.34,6.05,10.36a126.4,126.4,0,0,0,35.59,36.09q5.06,3.4,10.45,6.3,5.36-3,10.38-6.4A126.53,126.53,0,0,0,297,305.05q3.23-5.07,6-10.45c-1.86-3.61-3.89-7.13-6.08-10.53A126.68,126.68,0,0,0,261.64,248Z"/></svg>