<?xml version="1.0" encoding="UTF-8"?>
<!DOCTYPE svg PUBLIC "-//W3C//DTD SVG 1.1//EN" "http://www.w3.org/Graphics/SVG/1.1/DTD/svg11.dtd">
<svg version="1.1" xmlns="http://www.w3.org/2000/svg" xmlns:xlink="http://www.w3.org/1999/xlink" x="0" y="0" width="550" height="250" viewBox="0, 0, 550, 250">
  <g id="Layer_1">
    <path d="M166.96,75.12 L124.62,75.12 L115.62,111.12 L133.62,138.12 L124.62,174.12 L166.96,174.12 C168.86,174.123 170.682,173.369 172.026,172.026 C173.369,170.682 174.123,168.86 174.12,166.96 L174.12,82.28 C174.123,80.38 173.369,78.558 172.026,77.214 C170.682,75.871 168.86,75.117 166.96,75.12 z" fill="#9BA2B5"/>
    <path d="M115.62,111.12 L124.62,75.12 L82.28,75.12 C78.326,75.12 75.12,78.326 75.12,82.28 L75.12,166.96 C75.12,170.914 78.326,174.12 82.28,174.12 L124.62,174.12 L133.62,138.12 z" fill="#38466D"/>
    <path d="M166.96,75.12 C168.86,75.117 170.682,75.871 172.026,77.214 C173.369,78.558 174.123,80.38 174.12,82.28 L174.12,166.96 C174.123,168.86 173.369,170.682 172.026,172.026 C170.682,173.369 168.86,174.123 166.96,174.12 L82.28,174.12 C78.326,174.12 75.12,170.914 75.12,166.96 L75.12,82.28 C75.12,78.326 78.326,75.12 82.28,75.12 L166.96,75.12 M166.96,75 L82.28,75 C78.259,75 75,78.259 75,82.28 L75,166.96 C75,170.982 78.258,174.244 82.28,174.25 L166.96,174.25 C170.984,174.244 174.244,170.984 174.25,166.96 L174.25,82.28 C174.244,78.258 170.982,75 166.96,75 z" fill="#FFFFFF"/>
    <path d="M134.94,159.72 C135.05,159.79 135.16,159.84 135.26,159.91 L135.49,160.07 C135.75,160.21 136,160.36 136.24,160.51 C136.48,160.66 136.42,160.59 136.51,160.63 C139.045,161.862 142.013,161.817 144.51,160.51 L145.26,160.07 C147.774,158.437 149.31,155.659 149.356,152.661 C149.402,149.664 147.953,146.84 145.49,145.13 C145.08,144.88 144.66,144.64 144.25,144.41 C141.81,143.224 138.96,143.224 136.52,144.41 C136.1,144.64 135.68,144.88 135.27,145.13 C135.17,145.2 135.06,145.25 134.95,145.32 L134.47,145.55 L131.3,158.25 C132.554,158.632 133.772,159.124 134.94,159.72 z" fill="#38466D"/>
    <path d="M161,117.07 L160.25,116.63 C157.753,115.323 154.785,115.278 152.25,116.51 C151.83,116.74 151.41,116.98 151,117.23 C150.9,117.3 150.79,117.35 150.68,117.42 C145.634,120.05 139.773,120.647 134.3,119.09 C132.827,118.678 131.4,118.119 130.04,117.42 C129.93,117.35 129.82,117.3 129.72,117.23 C129.31,116.98 128.89,116.74 128.47,116.51 C127.267,115.927 125.947,115.623 124.61,115.62 C123.588,115.615 122.573,115.787 121.61,116.13 L131.61,131.13 C136.283,129.116 141.508,128.781 146.4,130.18 C147.875,130.584 149.303,131.144 150.66,131.85 C150.77,131.92 150.88,131.97 150.98,132.04 C151.39,132.29 151.81,132.53 152.23,132.76 C154.765,133.992 157.733,133.947 160.23,132.64 L160.98,132.2 C163.538,130.54 165.081,127.699 165.081,124.65 C165.081,121.601 163.538,118.76 160.98,117.1 z" fill="#38466D"/>
    <path d="M124.62,101.4 C126.67,101.401 128.709,101.687 130.68,102.25 C132.155,102.654 133.583,103.214 134.94,103.92 C135.05,103.99 135.16,104.04 135.26,104.11 L135.49,104.27 C135.75,104.41 136,104.56 136.24,104.71 C136.48,104.86 136.42,104.79 136.51,104.83 C138.95,106.016 141.8,106.016 144.24,104.83 L144.5,104.71 L145.25,104.27 L145.48,104.11 C147.943,102.4 149.392,99.576 149.346,96.579 C149.3,93.581 147.764,90.803 145.25,89.17 L144.5,88.73 C142.003,87.423 139.035,87.378 136.5,88.61 L136.23,88.73 C135.99,88.88 135.74,89.03 135.48,89.17 L135.25,89.33 C135.15,89.4 135.04,89.45 134.93,89.52 C131.735,91.158 128.2,92.021 124.61,92.04 C124.1,92.04 123.61,92.04 123.1,91.98 L120.65,101.77 C121.96,101.529 123.288,101.405 124.62,101.4 z" fill="#38466D"/>
    <path d="M124.62,147.84 C122.57,147.839 120.531,147.553 118.56,146.99 C117.087,146.578 115.66,146.019 114.3,145.32 C114.19,145.25 114.08,145.2 113.98,145.13 L113.75,144.97 L113,144.53 L112.74,144.41 C110.3,143.224 107.45,143.224 105.01,144.41 L104.74,144.53 C104.5,144.68 104.25,144.83 103.99,144.97 L103.76,145.13 C101.297,146.84 99.848,149.664 99.894,152.661 C99.94,155.659 101.476,158.437 103.99,160.07 C104.25,160.21 104.5,160.36 104.74,160.51 C107.238,161.812 110.204,161.857 112.74,160.63 L113,160.51 L113.75,160.07 L113.98,159.91 C114.08,159.84 114.19,159.79 114.3,159.72 C117.495,158.082 121.03,157.219 124.62,157.2 C125.13,157.2 125.62,157.2 126.14,157.26 L128.58,147.47 C127.274,147.711 125.948,147.835 124.62,147.84 z" fill="#837DBA"/>
    <path d="M114.93,119.09 C110.97,120.225 106.77,120.225 102.81,119.09 C101.337,118.678 99.91,118.119 98.55,117.42 C98.44,117.35 98.33,117.3 98.23,117.23 C97.82,116.98 97.4,116.74 96.98,116.51 C94.445,115.278 91.477,115.323 88.98,116.63 C88.74,116.78 88.49,116.93 88.23,117.07 C85.672,118.73 84.129,121.571 84.129,124.62 C84.129,127.669 85.672,130.51 88.23,132.17 C88.49,132.31 88.74,132.46 88.98,132.61 C91.477,133.917 94.445,133.962 96.98,132.73 C97.4,132.5 97.82,132.26 98.23,132.01 C98.33,131.94 98.44,131.89 98.55,131.82 C103.596,129.19 109.457,128.593 114.93,130.15 C116.405,130.554 117.833,131.114 119.19,131.82 C119.3,131.89 119.41,131.94 119.51,132.01 C119.92,132.26 120.34,132.5 120.76,132.73 C121.963,133.313 123.283,133.617 124.62,133.62 C125.642,133.62 126.656,133.448 127.62,133.11 L117.62,118.11 C116.745,118.494 115.847,118.821 114.93,119.09 z" fill="#14B1E6"/>
    <path d="M114.3,89.52 C114.19,89.45 114.08,89.4 113.98,89.33 L113.75,89.17 L113,88.73 L112.74,88.61 C110.204,87.383 107.238,87.428 104.74,88.73 C104.5,88.88 104.25,89.03 103.99,89.17 C101.476,90.803 99.94,93.581 99.894,96.579 C99.848,99.576 101.297,102.4 103.76,104.11 L103.99,104.27 C104.25,104.41 104.5,104.56 104.74,104.71 C104.98,104.86 104.92,104.79 105.01,104.83 C107.45,106.016 110.3,106.016 112.74,104.83 L113,104.71 L113.75,104.27 L113.98,104.11 C114.08,104.04 114.19,103.99 114.3,103.92 L114.78,103.69 L117.95,90.99 C116.692,90.609 115.471,90.117 114.3,89.52 z" fill="#FDBD4E"/>
    <path d="M192.12,134.94 L192.06,84.12 L208.63,84.06 C211.614,84.004 214.588,84.405 217.45,85.25 C219.711,85.932 221.808,87.073 223.61,88.6 C225.203,90.003 226.435,91.77 227.2,93.75 C227.989,95.843 228.382,98.064 228.36,100.3 C228.383,102.618 227.966,104.918 227.13,107.08 C226.323,109.112 225.056,110.929 223.43,112.39 C221.635,113.951 219.538,115.125 217.27,115.84 C214.474,116.71 211.557,117.125 208.63,117.07 L201.55,117.07 L201.61,134.94 z M201.61,109.64 L208.61,109.58 C210.135,109.608 211.655,109.389 213.11,108.93 C214.288,108.555 215.37,107.927 216.28,107.09 C217.121,106.269 217.764,105.267 218.16,104.16 C218.586,102.918 218.796,101.613 218.78,100.3 C218.795,99.053 218.585,97.813 218.16,96.64 C217.757,95.578 217.113,94.623 216.28,93.85 C215.364,93.042 214.282,92.445 213.11,92.1 C211.651,91.663 210.133,91.454 208.61,91.48 L201.61,91.48 z" fill="#38466D"/>
    <path d="M208.63,84.12 C211.607,84.064 214.575,84.465 217.43,85.31 C219.684,85.985 221.771,87.122 223.56,88.65 C225.152,90.04 226.381,91.798 227.14,93.77 C228.71,98.065 228.685,102.782 227.07,107.06 C226.27,109.082 225.01,110.89 223.39,112.34 C221.605,113.901 219.514,115.073 217.25,115.78 C214.461,116.65 211.551,117.066 208.63,117.01 L201.55,117.01 L201.55,134.88 L192.12,134.88 L192.12,84.12 L208.63,84.12 M201.55,109.62 L208.63,109.62 C210.162,109.648 211.688,109.429 213.15,108.97 C214.34,108.598 215.43,107.962 216.34,107.11 C217.2,106.273 217.85,105.245 218.24,104.11 C218.675,102.863 218.888,101.55 218.87,100.23 C218.887,98.975 218.673,97.728 218.24,96.55 C217.836,95.477 217.185,94.514 216.34,93.74 C215.419,92.923 214.33,92.319 213.15,91.97 C211.684,91.532 210.16,91.323 208.63,91.35 L201.55,91.35 L201.55,109.62 M208.63,83.97 L191.99,83.97 L191.99,134.97 L201.67,134.97 L201.67,117.14 L208.67,117.14 C211.604,117.192 214.528,116.773 217.33,115.9 C219.607,115.186 221.711,114.008 223.51,112.44 C225.141,110.971 226.413,109.147 227.23,107.11 C228.845,102.801 228.87,98.056 227.3,93.73 C226.528,91.74 225.29,89.963 223.69,88.55 C221.883,87.017 219.779,85.874 217.51,85.19 C214.642,84.342 211.661,83.937 208.67,83.99 z M201.63,91.53 L208.63,91.53 C210.145,91.503 211.656,91.705 213.11,92.13 C214.274,92.479 215.349,93.076 216.26,93.88 C217.084,94.637 217.721,95.575 218.12,96.62 C218.545,97.786 218.755,99.019 218.74,100.26 C218.756,101.566 218.546,102.865 218.12,104.1 C217.731,105.197 217.094,106.189 216.26,107 C215.358,107.835 214.282,108.46 213.11,108.83 C211.662,109.288 210.149,109.508 208.63,109.48 L201.63,109.48 L201.63,91.48 z" fill="#FFFFFF"/>
    <path d="M267.03,134.94 C266.295,134.961 265.567,134.788 264.92,134.44 C264.313,134.094 263.799,133.607 263.42,133.02 L252.76,116.77 C252.445,116.241 252.001,115.801 251.47,115.49 C250.813,115.201 250.097,115.071 249.38,115.11 L245.38,115.11 L245.44,134.88 L235.95,134.94 L235.89,84.12 L251.41,84.06 C254.412,84.005 257.407,84.365 260.31,85.13 C262.519,85.715 264.59,86.735 266.4,88.13 C267.933,89.36 269.133,90.956 269.89,92.77 C271.225,96.23 271.348,100.041 270.24,103.58 C269.749,105.078 269.012,106.484 268.06,107.74 C267.07,109.019 265.878,110.127 264.53,111.02 C263.097,111.968 261.538,112.711 259.9,113.23 C261.1,113.949 262.124,114.926 262.9,116.09 L275.65,134.93 z M245.42,108.27 L251.25,108.21 C252.815,108.24 254.375,108.017 255.87,107.55 C257.064,107.169 258.167,106.546 259.11,105.72 C259.944,104.953 260.59,104.006 261,102.95 C261.43,101.823 261.644,100.626 261.63,99.42 C261.758,97.173 260.825,94.997 259.11,93.54 C257.44,92.18 254.84,91.48 251.39,91.48 L245.39,91.48 z" fill="#38466D"/>
    <path d="M251.42,84.12 C254.415,84.063 257.404,84.423 260.3,85.19 C262.506,85.768 264.571,86.789 266.37,88.19 C267.897,89.414 269.09,91.003 269.84,92.81 C271.175,96.253 271.299,100.048 270.19,103.57 C269.702,105.061 268.968,106.46 268.02,107.71 C267.037,108.982 265.851,110.084 264.51,110.97 C263.044,111.947 261.444,112.705 259.76,113.22 C260.996,113.942 262.05,114.937 262.84,116.13 L275.53,134.88 L267.05,134.88 C266.325,134.904 265.607,134.735 264.97,134.39 C264.377,134.044 263.876,133.561 263.51,132.98 L252.85,116.73 C252.531,116.192 252.08,115.745 251.54,115.43 C250.873,115.137 250.147,115.007 249.42,115.05 L245.42,115.05 L245.42,134.88 L235.99,134.88 L235.99,84.12 L251.42,84.12 M245.42,108.27 L251.31,108.27 C252.883,108.301 254.45,108.075 255.95,107.6 C257.156,107.228 258.268,106.6 259.21,105.76 C260.054,104.991 260.708,104.035 261.12,102.97 C261.55,101.836 261.764,100.632 261.75,99.42 C261.886,97.153 260.944,94.956 259.21,93.49 Q256.68,91.42 251.45,91.42 L245.45,91.42 L245.45,108.27 M251.45,83.99 L235.81,83.99 L235.81,134.99 L245.49,134.99 L245.49,115.17 L249.42,115.17 C250.126,115.133 250.831,115.26 251.48,115.54 C252.002,115.847 252.439,116.28 252.75,116.8 L263.42,133.05 C264.178,134.324 265.579,135.075 267.06,135 L275.78,135 L275.65,134.81 L262.96,116.06 C262.205,114.93 261.221,113.973 260.07,113.25 C261.67,112.739 263.191,112.008 264.59,111.08 C265.941,110.183 267.137,109.072 268.13,107.79 C269.083,106.526 269.823,105.114 270.32,103.61 C271.445,100.059 271.318,96.229 269.96,92.76 C269.201,90.936 267.997,89.331 266.46,88.09 C264.642,86.695 262.565,85.676 260.35,85.09 C257.441,84.321 254.439,83.958 251.43,84.01 z M245.54,91.55 L251.42,91.55 C254.85,91.55 257.42,92.23 259.1,93.55 C260.802,94.993 261.728,97.152 261.6,99.38 C261.613,100.575 261.403,101.762 260.98,102.88 C260.569,103.927 259.926,104.867 259.1,105.63 C258.164,106.453 257.068,107.073 255.88,107.45 C254.391,107.912 252.839,108.135 251.28,108.11 L245.51,108.11 L245.51,91.51 z" fill="#FFFFFF"/>
    <path d="M282.71,134.95 L282.64,84.13 L292.17,84.06 L292.23,134.95 L282.71,134.95 z" fill="#38466D"/>
    <path d="M292.17,84.12 L292.17,134.88 L282.7,134.88 L282.7,84.12 L292.17,84.12 M292.29,83.99 L282.58,83.99 L282.58,134.99 L292.29,134.99 L292.29,83.99 z" fill="#FFFFFF"/>
    <path d="M319.05,134.94 L298.49,84.06 L306.19,84.06 C306.906,84.034 307.61,84.249 308.19,84.67 C308.717,85.078 309.124,85.62 309.37,86.24 L321.29,117.24 C321.68,118.24 322.07,119.36 322.43,120.56 C322.79,121.76 323.09,122.88 323.43,124.1 C323.891,121.765 324.54,119.471 325.37,117.24 L337.26,86.24 C337.505,85.65 337.897,85.134 338.4,84.74 C338.966,84.286 339.674,84.046 340.4,84.06 L348.1,84.06 L327.57,134.94 z" fill="#38466D"/>
    <path d="M348.04,84.12 L327.57,134.88 L319.05,134.88 L298.58,84.12 L306.19,84.12 C306.905,84.09 307.61,84.301 308.19,84.72 C308.704,85.121 309.102,85.653 309.34,86.26 L321.26,117.26 C321.66,118.26 322.04,119.37 322.4,120.58 C322.76,121.79 323.11,123.05 323.4,124.39 C323.867,121.962 324.536,119.577 325.4,117.26 L337.29,86.26 C337.528,85.68 337.914,85.174 338.41,84.79 C338.974,84.332 339.684,84.094 340.41,84.12 L348.01,84.12 M348.2,83.99 L340.42,83.99 C339.665,83.968 338.928,84.216 338.34,84.69 C337.83,85.094 337.431,85.62 337.18,86.22 L325.3,117.22 C324.491,119.366 323.856,121.573 323.4,123.82 C323.11,122.68 322.81,121.58 322.5,120.54 C322.14,119.34 321.75,118.22 321.36,117.22 L309.42,86.22 C309.171,85.589 308.756,85.036 308.22,84.62 C307.622,84.18 306.892,83.957 306.15,83.99 L298.42,83.99 L298.48,84.17 L318.96,134.93 L318.96,135 L327.64,135 L327.64,134.93 L348.11,84.17 L348.18,83.99 z" fill="#FFFFFF"/>
    <path d="M384.67,134.94 C383.937,134.966 383.216,134.748 382.62,134.32 C382.099,133.915 381.698,133.376 381.46,132.76 L377.67,122.4 L356.74,122.45 L353.01,132.76 C352.784,133.355 352.396,133.874 351.89,134.26 C351.303,134.719 350.575,134.959 349.83,134.94 L342.42,134.94 L362.37,84.1 L372.06,84.1 L392.06,134.98 z M375.23,115.62 L369.09,98.82 C368.81,98.07 368.5,97.19 368.16,96.17 C367.82,95.15 367.53,94.17 367.22,93.07 C366.91,94.18 366.61,95.22 366.31,96.18 C366.01,97.14 365.68,98.12 365.38,98.89 L359.24,115.62 z" fill="#38466D"/>
    <path d="M372.05,84.12 L391.97,134.88 L384.67,134.88 C383.954,134.907 383.249,134.692 382.67,134.27 C382.153,133.878 381.758,133.347 381.53,132.74 L377.74,122.38 L356.74,122.38 L352.95,132.74 C352.731,133.325 352.349,133.835 351.85,134.21 C351.282,134.66 350.574,134.897 349.85,134.88 L342.52,134.88 L362.42,84.12 L372.06,84.12 M359.16,115.71 L375.32,115.71 L369.15,98.83 C368.87,98.08 368.55,97.2 368.22,96.18 C367.89,95.16 367.54,94.05 367.22,92.86 C366.89,94.05 366.57,95.17 366.22,96.2 C365.87,97.23 365.6,98.13 365.29,98.9 L359.12,115.71 M372.12,83.99 L362.31,83.99 L362.31,84.07 L342.42,134.83 L342.35,135 L349.86,135 C350.616,135.022 351.356,134.778 351.95,134.31 C352.468,133.917 352.867,133.387 353.1,132.78 L356.85,122.51 L377.68,122.51 L381.42,132.78 C381.659,133.406 382.068,133.953 382.6,134.36 C383.204,134.805 383.941,135.03 384.69,135 L392.17,135 L392.1,134.83 L372.19,84.07 L372.19,83.99 z M359.33,115.62 L365.42,98.94 C365.73,98.17 366.04,97.26 366.35,96.23 C366.66,95.2 366.92,94.34 367.2,93.33 C367.49,94.33 367.78,95.33 368.08,96.22 C368.38,97.11 368.73,98.12 369.01,98.87 L375.14,115.62 z" fill="#FFFFFF"/>
    <path d="M403.08,134.95 L403.02,91.88 L387.76,91.95 L387.7,84.13 L427.76,84.06 L427.82,91.88 L412.51,91.95 L412.57,134.95 L403.08,134.95 z" fill="#38466D"/>
    <path d="M427.76,84.12 L427.76,91.88 L412.51,91.88 L412.51,134.88 L403.08,134.88 L403.08,91.88 L387.76,91.88 L387.76,84.12 L427.76,84.12 M427.88,83.99 L387.63,83.99 L387.63,91.99 L402.95,91.99 L402.95,134.99 L412.63,134.99 L412.63,91.99 L427.88,91.99 L427.88,83.99 z" fill="#FFFFFF"/>
    <path d="M433.75,134.95 L433.69,84.13 L465.72,84.06 L465.79,91.64 L443.25,91.7 L443.32,105.71 L460.96,105.65 L461.02,112.98 L443.25,113.04 L443.32,127.34 L465.72,127.27 L465.79,134.95 L433.75,134.95 z" fill="#38466D"/>
    <path d="M465.72,84.12 L465.72,91.62 L443.25,91.62 L443.25,105.7 L460.95,105.7 L460.95,112.97 L443.25,112.97 L443.25,127.32 L465.72,127.32 L465.72,134.87 L433.72,134.87 L433.72,84.12 L465.72,84.12 M465.84,83.99 L433.63,83.99 L433.63,134.99 L465.84,134.99 L465.84,127.2 L443.42,127.2 L443.42,113.1 L461.13,113.1 L461.13,105.62 L443.42,105.62 L443.42,91.76 L465.89,91.76 L465.89,83.99 z" fill="#FFFFFF"/>
    <path d="M198.69,165.18 C198.076,165.179 197.463,165.118 196.86,165 C196.244,164.874 195.639,164.7 195.05,164.48 C194.484,164.256 193.935,163.988 193.41,163.68 C192.927,163.403 192.48,163.067 192.08,162.68 L193.38,160.53 C193.488,160.363 193.636,160.225 193.81,160.13 C193.995,160.031 194.201,159.98 194.41,159.98 C194.703,159.983 194.989,160.074 195.23,160.24 L196.14,160.79 C196.506,161.005 196.891,161.186 197.29,161.33 C197.78,161.508 198.299,161.592 198.82,161.58 C199.475,161.623 200.124,161.439 200.66,161.06 C201.119,160.644 201.359,160.038 201.31,159.42 C201.314,159.054 201.186,158.699 200.95,158.42 C200.687,158.13 200.367,157.899 200.01,157.74 C199.573,157.547 199.121,157.386 198.66,157.26 C198.15,157.12 197.66,156.97 197.09,156.8 C196.554,156.62 196.029,156.407 195.52,156.16 C195.008,155.906 194.541,155.568 194.14,155.16 C193.71,154.712 193.371,154.186 193.14,153.61 C192.878,152.883 192.752,152.113 192.77,151.34 C192.766,149.824 193.393,148.375 194.5,147.34 C195.102,146.775 195.809,146.334 196.58,146.04 C197.482,145.706 198.438,145.544 199.4,145.56 C199.979,145.561 200.558,145.608 201.13,145.7 C201.671,145.788 202.204,145.925 202.72,146.11 C203.209,146.284 203.68,146.502 204.13,146.76 C204.552,147.002 204.947,147.286 205.31,147.61 L204.21,149.75 C204.098,149.939 203.952,150.105 203.78,150.24 C203.606,150.357 203.4,150.417 203.19,150.41 C202.95,150.4 202.717,150.332 202.51,150.21 L201.72,149.79 C201.399,149.62 201.064,149.476 200.72,149.36 C200.312,149.233 199.887,149.172 199.46,149.18 C198.812,149.128 198.167,149.309 197.64,149.69 C197.244,150.041 197.028,150.552 197.05,151.08 C197.039,151.421 197.165,151.752 197.4,152 C197.674,152.271 197.996,152.488 198.35,152.64 C198.788,152.838 199.239,153.005 199.7,153.14 C200.22,153.3 200.7,153.47 201.28,153.66 C201.815,153.851 202.339,154.071 202.85,154.32 C203.362,154.579 203.831,154.917 204.24,155.32 C204.662,155.74 205.001,156.235 205.24,156.78 C205.499,157.439 205.625,158.142 205.61,158.85 C205.615,159.706 205.456,160.555 205.14,161.35 C204.837,162.103 204.381,162.784 203.8,163.35 C203.176,163.952 202.434,164.419 201.62,164.72 C200.68,165.051 199.687,165.207 198.69,165.18 z" fill="#9BA2B5"/>
    <path d="M199.42,145.62 C199.996,145.621 200.571,145.667 201.14,145.76 C201.678,145.848 202.207,145.985 202.72,146.17 C203.205,146.341 203.674,146.555 204.12,146.81 C204.538,147.048 204.927,147.333 205.28,147.66 L204.18,149.72 C204.075,149.902 203.936,150.061 203.77,150.19 C203.606,150.303 203.409,150.359 203.21,150.35 C202.981,150.344 202.757,150.278 202.56,150.16 L201.77,149.73 C201.45,149.558 201.115,149.415 200.77,149.3 C200.356,149.17 199.924,149.106 199.49,149.11 C198.825,149.058 198.164,149.25 197.63,149.65 C197.218,150.008 196.993,150.535 197.02,151.08 C196.996,151.449 197.126,151.811 197.38,152.08 C197.669,152.36 198.009,152.584 198.38,152.74 C198.824,152.939 199.282,153.106 199.75,153.24 C200.26,153.4 200.75,153.57 201.32,153.76 C201.856,153.948 202.38,154.169 202.89,154.42 C203.394,154.678 203.853,155.016 204.25,155.42 C204.674,155.83 205.014,156.319 205.25,156.86 C205.505,157.496 205.631,158.175 205.62,158.86 C205.623,159.708 205.467,160.549 205.16,161.34 C204.857,162.092 204.401,162.773 203.82,163.34 C203.203,163.932 202.471,164.392 201.67,164.69 C200.738,165.031 199.752,165.197 198.76,165.18 C198.149,165.179 197.54,165.118 196.94,165 C196.33,164.875 195.732,164.701 195.15,164.48 C194.548,164.248 193.968,163.96 193.42,163.62 C192.936,163.344 192.489,163.008 192.09,162.62 L193.4,160.55 C193.503,160.389 193.644,160.255 193.81,160.16 C193.986,160.068 194.182,160.02 194.38,160.02 C194.662,160.025 194.936,160.112 195.17,160.27 L196.08,160.82 C196.448,161.041 196.836,161.225 197.24,161.37 C197.737,161.548 198.262,161.633 198.79,161.62 C199.458,161.658 200.12,161.471 200.67,161.09 C201.151,160.667 201.4,160.038 201.34,159.4 C201.358,159.003 201.226,158.614 200.97,158.31 C200.693,158.008 200.351,157.772 199.97,157.62 C199.535,157.417 199.084,157.253 198.62,157.13 C198.11,156.99 197.62,156.84 197.05,156.67 C196.515,156.498 195.994,156.288 195.49,156.04 C194.982,155.788 194.522,155.45 194.13,155.04 C193.7,154.604 193.36,154.087 193.13,153.52 C192.871,152.799 192.749,152.036 192.77,151.27 C192.769,150.548 192.915,149.833 193.2,149.17 C193.493,148.479 193.925,147.856 194.47,147.34 C195.07,146.783 195.773,146.348 196.54,146.06 C197.462,145.728 198.441,145.578 199.42,145.62 M199.42,145.5 C198.452,145.484 197.489,145.647 196.58,145.98 C195.803,146.279 195.09,146.723 194.48,147.29 C193.92,147.817 193.474,148.453 193.17,149.16 C192.882,149.84 192.732,150.571 192.73,151.31 C192.709,152.091 192.838,152.868 193.11,153.6 C193.335,154.185 193.675,154.719 194.11,155.17 C194.518,155.574 194.987,155.911 195.5,156.17 C196.012,156.418 196.54,156.632 197.08,156.81 C197.62,156.98 198.14,157.13 198.65,157.27 C199.109,157.394 199.557,157.555 199.99,157.75 C200.342,157.908 200.659,158.136 200.92,158.42 C201.15,158.701 201.267,159.057 201.25,159.42 C201.303,160.018 201.074,160.606 200.63,161.01 C200.106,161.38 199.471,161.56 198.83,161.52 C198.316,161.531 197.805,161.449 197.32,161.28 C196.925,161.129 196.544,160.945 196.18,160.73 C195.84,160.53 195.54,160.35 195.28,160.18 C195.022,160.018 194.725,159.928 194.42,159.92 C194.199,159.916 193.982,159.971 193.79,160.08 C193.604,160.176 193.449,160.321 193.34,160.5 L192.02,162.57 L191.97,162.66 L192.04,162.73 C192.451,163.113 192.904,163.448 193.39,163.73 C194.464,164.365 195.637,164.815 196.86,165.06 C197.466,165.182 198.082,165.245 198.7,165.25 C199.707,165.267 200.708,165.094 201.65,164.74 C202.471,164.441 203.22,163.975 203.85,163.37 C204.44,162.784 204.903,162.083 205.21,161.31 C205.526,160.504 205.685,159.646 205.68,158.78 C205.697,158.065 205.567,157.354 205.3,156.69 C205.067,156.136 204.727,155.633 204.3,155.21 C203.888,154.806 203.416,154.468 202.9,154.21 C202.389,153.952 201.861,153.728 201.32,153.54 C200.78,153.35 200.25,153.18 199.74,153.02 C199.278,152.889 198.826,152.722 198.39,152.52 C198.045,152.372 197.73,152.162 197.46,151.9 C197.238,151.662 197.119,151.345 197.13,151.02 C197.105,150.51 197.315,150.016 197.7,149.68 C198.215,149.307 198.846,149.13 199.48,149.18 C199.9,149.174 200.319,149.235 200.72,149.36 C201.063,149.477 201.397,149.617 201.72,149.78 L202.51,150.21 C202.727,150.332 202.971,150.401 203.22,150.41 C203.444,150.417 203.664,150.354 203.85,150.23 C204.034,150.093 204.187,149.92 204.3,149.72 L205.4,147.66 L205.42,147.62 L205.35,147.56 C204.987,147.227 204.588,146.935 204.16,146.69 C203.707,146.432 203.232,146.214 202.74,146.04 C202.221,145.854 201.685,145.717 201.14,145.63 C200.565,145.532 199.983,145.485 199.4,145.49 z" fill="#FFFFFF"/>
    <path d="M225.36,164.98 L225.3,149.31 L219.97,149.37 L219.91,145.79 L235.19,145.72 L235.25,149.31 L229.8,149.37 L229.86,164.98 L225.36,164.98 z" fill="#9BA2B5"/>
    <path d="M235.18,145.78 L235.18,149.3 L229.8,149.3 L229.8,164.91 L225.36,164.91 L225.36,149.3 L219.97,149.3 L219.97,145.78 L235.18,145.78 M235.31,145.66 L219.85,145.66 L219.85,149.43 L225.23,149.43 L225.23,165.04 L229.92,165.04 L229.92,149.43 L235.31,149.43 L235.31,145.62 z" fill="#FFFFFF"/>
    <path d="M258.73,165.18 C257.328,165.198 255.935,164.944 254.63,164.43 C253.444,163.957 252.366,163.25 251.46,162.35 C250.589,161.452 249.909,160.387 249.46,159.22 C248.5,156.722 248.5,153.958 249.46,151.46 C249.905,150.293 250.585,149.231 251.46,148.34 C252.366,147.441 253.444,146.733 254.63,146.26 C257.267,145.253 260.183,145.253 262.82,146.26 C265.193,147.2 267.069,149.083 268,151.46 C268.96,153.954 268.96,156.716 268,159.21 C267.074,161.592 265.197,163.48 262.82,164.42 C261.519,164.936 260.13,165.194 258.73,165.18 z M258.73,149.3 C257.954,149.289 257.183,149.428 256.46,149.71 C255.821,149.976 255.25,150.382 254.79,150.9 C254.311,151.457 253.953,152.107 253.74,152.81 C253.49,153.63 253.368,154.483 253.38,155.34 C253.368,156.203 253.49,157.064 253.74,157.89 C253.955,158.589 254.313,159.236 254.79,159.79 C255.248,160.308 255.819,160.712 256.46,160.97 C257.917,161.517 259.523,161.517 260.98,160.97 C261.616,160.709 262.184,160.305 262.64,159.79 C263.092,159.227 263.432,158.582 263.64,157.89 C263.89,157.064 264.012,156.203 264,155.34 C264.012,154.483 263.89,153.63 263.64,152.81 C263.434,152.114 263.094,151.466 262.64,150.9 C262.182,150.385 261.615,149.978 260.98,149.71 C260.264,149.429 259.499,149.29 258.73,149.3 z" fill="#9BA2B5"/>
    <path d="M258.73,145.62 C260.12,145.6 261.501,145.858 262.79,146.38 C265.158,147.297 267.028,149.171 267.94,151.54 C268.9,154.02 268.9,156.77 267.94,159.25 C267.02,161.616 265.153,163.491 262.79,164.42 C261.499,164.934 260.119,165.189 258.73,165.17 C257.334,165.188 255.948,164.933 254.65,164.42 C252.287,163.484 250.416,161.613 249.48,159.25 C248.534,156.764 248.534,154.016 249.48,151.53 C249.933,150.374 250.613,149.32 251.48,148.43 C252.379,147.541 253.446,146.84 254.62,146.37 C255.918,145.857 257.304,145.602 258.7,145.62 M258.7,161.49 C259.476,161.506 260.248,161.367 260.97,161.08 C261.616,160.812 262.194,160.402 262.66,159.88 C263.137,159.318 263.495,158.665 263.71,157.96 C263.969,157.128 264.094,156.261 264.08,155.39 C264.095,154.526 263.97,153.664 263.71,152.84 C263.497,152.131 263.14,151.474 262.66,150.91 C262.194,150.388 261.616,149.978 260.97,149.71 C260.25,149.415 259.478,149.272 258.7,149.29 C257.913,149.271 257.13,149.414 256.4,149.71 C255.752,149.975 255.174,150.386 254.71,150.91 C254.231,151.476 253.87,152.132 253.65,152.84 C253.395,153.666 253.27,154.526 253.28,155.39 C253.271,156.261 253.396,157.127 253.65,157.96 C253.873,158.664 254.233,159.317 254.71,159.88 C255.174,160.404 255.752,160.815 256.4,161.08 C257.132,161.368 257.914,161.507 258.7,161.49 M258.7,145.49 C257.291,145.472 255.892,145.726 254.58,146.24 C253.388,146.718 252.304,147.428 251.39,148.33 C250.503,149.228 249.805,150.296 249.34,151.47 C248.367,153.986 248.367,156.774 249.34,159.29 C249.805,160.464 250.503,161.532 251.39,162.43 C252.301,163.338 253.386,164.052 254.58,164.53 C257.23,165.543 260.16,165.543 262.81,164.53 C265.202,163.584 267.093,161.686 268.03,159.29 C268.99,156.779 268.99,154.001 268.03,151.49 C267.579,150.321 266.899,149.253 266.03,148.35 C265.121,147.444 264.04,146.73 262.85,146.25 C261.543,145.729 260.147,145.471 258.74,145.49 z M258.7,161.36 C257.931,161.371 257.168,161.235 256.45,160.96 C255.819,160.699 255.255,160.299 254.8,159.79 C254.347,159.234 254.008,158.596 253.8,157.91 C253.318,156.261 253.318,154.509 253.8,152.86 C254.01,152.175 254.349,151.537 254.8,150.98 C255.255,150.471 255.819,150.071 256.45,149.81 C257.166,149.527 257.93,149.388 258.7,149.4 C259.46,149.388 260.214,149.528 260.92,149.81 C261.552,150.069 262.114,150.473 262.56,150.99 C263.016,151.54 263.356,152.176 263.56,152.86 C264.042,154.509 264.042,156.261 263.56,157.91 C263.358,158.598 263.018,159.238 262.56,159.79 C262.11,160.301 261.549,160.701 260.92,160.96 C260.212,161.234 259.459,161.37 258.7,161.36 z" fill="#FFFFFF"/>
    <path d="M295.96,164.97 C295.286,165.021 294.642,164.683 294.3,164.1 L291.12,158.55 C291.012,158.343 290.85,158.17 290.65,158.05 C290.413,157.937 290.152,157.886 289.89,157.9 L288.76,157.9 L288.82,164.9 L284.32,164.96 L284.25,145.77 L290.55,145.71 C291.748,145.684 292.943,145.829 294.1,146.14 C294.979,146.373 295.802,146.782 296.52,147.34 C297.118,147.823 297.586,148.449 297.88,149.16 C298.167,149.886 298.313,150.66 298.31,151.44 C298.313,152.043 298.226,152.643 298.05,153.22 C297.888,153.775 297.635,154.299 297.3,154.77 C296.96,155.252 296.548,155.681 296.08,156.04 C295.61,156.393 295.096,156.682 294.55,156.9 C294.807,157.041 295.048,157.209 295.27,157.4 C295.541,157.632 295.774,157.906 295.96,158.21 L300.09,164.96 z M288.82,154.78 L290.55,154.71 C291.065,154.723 291.579,154.649 292.07,154.49 C292.444,154.357 292.785,154.145 293.07,153.87 C293.329,153.606 293.527,153.289 293.65,152.94 C293.773,152.566 293.834,152.174 293.83,151.78 C293.867,151.052 293.573,150.346 293.03,149.86 C292.303,149.345 291.418,149.101 290.53,149.17 L288.82,149.17 z" fill="#9BA2B5"/>
    <path d="M290.55,145.78 C291.744,145.755 292.936,145.9 294.09,146.21 C294.959,146.44 295.773,146.845 296.48,147.4 C297.073,147.875 297.535,148.495 297.82,149.2 C298.312,150.479 298.372,151.884 297.99,153.2 C297.83,153.747 297.58,154.264 297.25,154.73 C296.913,155.209 296.505,155.634 296.04,155.99 C295.539,156.372 294.983,156.676 294.39,156.89 C294.691,157.039 294.973,157.224 295.23,157.44 C295.495,157.669 295.721,157.939 295.9,158.24 L299.98,164.9 L295.98,164.9 C295.327,164.949 294.703,164.624 294.37,164.06 L291.2,158.51 C291.085,158.291 290.912,158.107 290.7,157.98 C290.453,157.864 290.182,157.809 289.91,157.82 L288.78,157.82 L288.78,164.9 L284.32,164.9 L284.32,145.78 L290.55,145.78 M288.76,154.78 L290.55,154.78 C291.073,154.79 291.593,154.712 292.09,154.55 C292.464,154.408 292.804,154.19 293.09,153.91 C293.358,153.644 293.56,153.318 293.68,152.96 C293.81,152.58 293.874,152.181 293.87,151.78 C293.917,151.023 293.615,150.286 293.05,149.78 C292.313,149.252 291.414,149 290.51,149.07 L288.72,149.07 L288.72,154.75 M290.51,145.63 L284.15,145.63 L284.15,165.01 L288.84,165.01 L288.84,157.93 L289.84,157.93 C290.091,157.918 290.341,157.966 290.57,158.07 C290.763,158.184 290.919,158.35 291.02,158.55 L294.2,164.1 C294.548,164.707 295.213,165.06 295.91,165.01 L300.15,165.01 L300.03,164.82 L295.96,158.16 C295.776,157.845 295.539,157.564 295.26,157.33 C295.068,157.163 294.861,157.016 294.64,156.89 C295.15,156.679 295.63,156.404 296.07,156.07 C296.542,155.704 296.957,155.269 297.3,154.78 C297.638,154.306 297.895,153.778 298.06,153.22 C298.458,151.872 298.398,150.43 297.89,149.12 C297.592,148.398 297.118,147.761 296.51,147.27 C295.787,146.706 294.957,146.295 294.07,146.06 C292.906,145.75 291.704,145.605 290.5,145.63 z M288.84,149.2 L290.51,149.2 C291.384,149.131 292.255,149.372 292.97,149.88 C293.495,150.355 293.778,151.042 293.74,151.75 C293.742,152.136 293.685,152.521 293.57,152.89 C293.45,153.227 293.259,153.534 293.01,153.79 C292.724,154.062 292.383,154.27 292.01,154.4 C291.526,154.559 291.019,154.633 290.51,154.62 L288.84,154.62 L288.84,149.2 z" fill="#FFFFFF"/>
    <path d="M329.55,164.97 C329.195,164.988 328.844,164.89 328.55,164.69 C328.299,164.512 328.11,164.261 328.01,163.97 L326.89,160.62 L319.67,160.62 L318.6,163.91 C318.495,164.187 318.311,164.427 318.07,164.6 C317.784,164.818 317.43,164.928 317.07,164.91 L313.51,164.91 L320.95,145.7 L325.55,145.7 L333.05,164.95 z M325.84,157.54 L324.04,152.19 L323.71,151.19 C323.57,150.81 323.44,150.39 323.31,149.94 C323.19,150.4 323.07,150.82 322.94,151.21 C322.81,151.6 322.65,152.07 322.52,152.4 L320.78,157.53 z" fill="#9BA2B5"/>
    <path d="M325.58,145.78 L332.99,164.91 L329.55,164.91 C329.213,164.923 328.88,164.829 328.6,164.64 C328.359,164.47 328.177,164.228 328.08,163.95 L326.95,160.62 L319.67,160.62 L318.54,163.95 C318.318,164.553 317.742,164.952 317.1,164.95 L313.63,164.95 L321.04,145.82 L325.58,145.82 M320.7,157.62 L325.93,157.62 L324.16,152.38 C324.05,152.05 323.92,151.66 323.76,151.2 C323.6,150.74 323.46,150.27 323.31,149.74 C323.17,150.27 323.03,150.74 322.88,151.22 C322.73,151.7 322.59,152.07 322.46,152.41 L320.7,157.62 M325.7,145.68 L320.98,145.68 L320.98,145.76 L313.57,164.89 L313.51,165.06 L317.16,165.06 C317.521,165.067 317.874,164.95 318.16,164.73 C318.411,164.55 318.602,164.299 318.71,164.01 L319.81,160.76 L326.91,160.76 L328.01,164.01 C328.116,164.314 328.315,164.577 328.58,164.76 C328.873,164.964 329.223,165.069 329.58,165.06 L333.21,165.06 L333.14,164.89 L325.73,145.76 L325.73,145.68 z M320.9,157.49 L322.61,152.49 C322.74,152.15 322.88,151.75 323.03,151.3 C323.18,150.85 323.24,150.61 323.35,150.24 C323.45,150.61 323.57,150.96 323.68,151.24 L324.07,152.39 L325.78,157.49 z" fill="#FFFFFF"/>
    <path d="M356.1,165.18 C354.761,165.192 353.432,164.94 352.19,164.44 C349.835,163.484 347.966,161.615 347.01,159.26 C346.508,158.015 346.253,156.683 346.26,155.34 C346.24,153.973 346.484,152.614 346.98,151.34 C347.424,150.176 348.105,149.117 348.98,148.23 C349.904,147.348 351,146.668 352.2,146.23 C353.542,145.725 354.967,145.478 356.4,145.5 C357.158,145.498 357.914,145.565 358.66,145.7 C359.342,145.817 360.012,145.998 360.66,146.24 C361.23,146.457 361.776,146.731 362.29,147.06 C362.764,147.35 363.21,147.685 363.62,148.06 L362.34,150.06 C362.221,150.241 362.064,150.395 361.88,150.51 C361.702,150.618 361.498,150.673 361.29,150.67 C360.987,150.662 360.692,150.569 360.44,150.4 Q359.92,150.09 359.44,149.86 C359.137,149.712 358.823,149.588 358.5,149.49 C358.172,149.398 357.838,149.328 357.5,149.28 C357.101,149.238 356.701,149.218 356.3,149.22 C355.535,149.207 354.775,149.353 354.07,149.65 C353.426,149.932 352.853,150.352 352.39,150.88 C351.91,151.436 351.546,152.082 351.32,152.78 C351.059,153.58 350.931,154.418 350.94,155.26 C350.929,156.171 351.071,157.077 351.36,157.94 C351.606,158.677 351.997,159.357 352.51,159.94 C352.995,160.468 353.588,160.884 354.25,161.16 C354.948,161.445 355.696,161.588 356.45,161.58 C356.994,161.586 357.537,161.536 358.07,161.43 C358.524,161.325 358.968,161.184 359.4,161.01 L359.4,158.17 L357.57,158.23 C357.315,158.242 357.064,158.157 356.87,157.99 C356.699,157.834 356.604,157.611 356.61,157.38 L356.61,154.94 L363.48,154.88 L363.54,163.01 C363.059,163.401 362.536,163.736 361.98,164.01 C361.431,164.277 360.858,164.495 360.27,164.66 C359.64,164.83 358.998,164.95 358.35,165.02 C357.604,165.118 356.853,165.171 356.1,165.18 z" fill="#9BA2B5"/>
    <path d="M356.42,145.62 C357.175,145.618 357.928,145.685 358.67,145.82 C359.332,145.939 359.982,146.12 360.61,146.36 C361.175,146.577 361.717,146.849 362.23,147.17 C362.698,147.461 363.136,147.796 363.54,148.17 L362.26,150.12 C362.145,150.292 361.995,150.439 361.82,150.55 C361.653,150.658 361.458,150.713 361.26,150.71 C360.968,150.701 360.684,150.611 360.44,150.45 C360.09,150.24 359.76,150.06 359.44,149.9 C359.133,149.753 358.815,149.63 358.49,149.53 C358.164,149.43 357.829,149.36 357.49,149.32 C357.091,149.278 356.691,149.258 356.29,149.26 C355.518,149.245 354.752,149.391 354.04,149.69 C353.388,149.976 352.807,150.403 352.34,150.94 C351.854,151.502 351.483,152.154 351.25,152.86 C350.989,153.667 350.861,154.512 350.87,155.36 C350.854,156.277 350.996,157.191 351.29,158.06 C351.539,158.8 351.937,159.48 352.46,160.06 C352.947,160.6 353.548,161.023 354.22,161.3 C354.924,161.589 355.679,161.735 356.44,161.73 C356.987,161.734 357.534,161.68 358.07,161.57 C358.527,161.465 358.975,161.324 359.41,161.15 L359.41,158.25 L357.52,158.25 C357.278,158.262 357.042,158.18 356.86,158.02 C356.707,157.875 356.623,157.671 356.63,157.46 L356.63,155.02 L363.42,155.02 L363.42,163.09 C362.939,163.445 362.427,163.756 361.89,164.02 C361.349,164.285 360.783,164.496 360.2,164.65 C359.571,164.824 358.929,164.948 358.28,165.02 C357.553,165.103 356.822,165.143 356.09,165.14 C354.757,165.152 353.435,164.9 352.2,164.4 C351.05,163.94 350,163.261 349.11,162.4 C348.225,161.515 347.528,160.46 347.06,159.3 C346.557,158.066 346.305,156.743 346.32,155.41 C346.301,154.066 346.542,152.732 347.03,151.48 C347.469,150.319 348.151,149.266 349.03,148.39 C349.945,147.512 351.031,146.831 352.22,146.39 C353.56,145.875 354.984,145.614 356.42,145.62 M356.42,145.5 C354.977,145.479 353.542,145.726 352.19,146.23 C350.982,146.679 349.881,147.378 348.96,148.28 C348.061,149.167 347.359,150.234 346.9,151.41 C346.406,152.685 346.162,154.043 346.18,155.41 C346.168,156.76 346.423,158.099 346.93,159.35 C347.408,160.524 348.116,161.591 349.01,162.49 C349.904,163.382 350.969,164.086 352.14,164.56 C353.39,165.071 354.729,165.329 356.08,165.32 C356.815,165.323 357.55,165.283 358.28,165.2 C358.935,165.124 359.583,165 360.22,164.83 C360.811,164.663 361.386,164.446 361.94,164.18 C362.484,163.914 363.003,163.6 363.49,163.24 L363.54,163.24 L363.54,154.97 L356.48,154.97 L356.48,157.54 C356.474,157.79 356.576,158.03 356.76,158.2 C356.963,158.38 357.23,158.47 357.5,158.45 L359.27,158.45 L359.27,161.15 C358.863,161.306 358.445,161.433 358.02,161.53 C357.493,161.636 356.957,161.686 356.42,161.68 C355.674,161.686 354.933,161.547 354.24,161.27 C353.591,160.992 353.008,160.58 352.53,160.06 C352.018,159.477 351.631,158.797 351.39,158.06 C351.104,157.203 350.965,156.303 350.98,155.4 C350.968,154.565 351.093,153.734 351.35,152.94 C351.575,152.249 351.936,151.61 352.41,151.06 C352.864,150.536 353.432,150.122 354.07,149.85 C354.765,149.552 355.514,149.406 356.27,149.42 C356.667,149.418 357.065,149.438 357.46,149.48 C357.798,149.527 358.132,149.597 358.46,149.69 C358.784,149.785 359.098,149.909 359.4,150.06 C359.7,150.21 360.03,150.39 360.4,150.6 C360.662,150.772 360.967,150.869 361.28,150.88 C361.5,150.88 361.715,150.818 361.9,150.7 C362.095,150.584 362.26,150.423 362.38,150.23 L363.67,148.23 L363.72,148.15 L363.65,148.07 C363.24,147.695 362.794,147.36 362.32,147.07 C361.8,146.738 361.247,146.46 360.67,146.24 C360.022,145.997 359.352,145.817 358.67,145.7 C357.922,145.559 357.161,145.492 356.4,145.5 z" fill="#FFFFFF"/>
    <path d="M379.67,164.98 L379.61,145.79 L392,145.72 L392.06,149.2 L384.14,149.26 L384.2,153.66 L390.16,153.6 L390.22,156.95 L384.14,157.01 L384.2,161.5 L392,161.44 L392.06,164.98 L379.67,164.98 z" fill="#9BA2B5"/>
    <path d="M391.99,145.78 L391.99,149.2 L384.14,149.2 L384.14,153.62 L390.14,153.62 L390.14,156.9 L384.14,156.9 L384.14,161.46 L391.99,161.46 L391.99,164.87 L379.67,164.87 L379.67,145.78 L391.99,145.78 M392.12,145.66 L379.54,145.66 L379.54,165.04 L392.12,165.04 L392.12,161.37 L384.26,161.37 L384.26,157.07 L390.26,157.07 L390.26,153.53 L384.26,153.53 L384.26,149.32 L392.12,149.32 L392.12,145.62 z" fill="#FFFFFF"/>
  </g>
</svg>
