<?xml version="1.0" encoding="UTF-8"?><svg id="Layer_1" xmlns="http://www.w3.org/2000/svg" viewBox="0 0 181.5 181"><defs><style>.cls-1{fill:#161616;fill-rule:evenodd;}</style></defs><path class="cls-1" d="M91.2,52.43l30.09,31.27v34.86h-24.2v-14.03h10.17v-15.18l-16.24-16.87-16.88,16.95v15.11h11.13v14.03h-25.16v-34.93l31.08-31.2ZM160.86,137.1l-12.72-12.72c3.15-5.33,5.5-11,7.06-16.83h16.43v-34.09h-16.31c-1.52-5.9-3.85-11.62-7-17.01l12.3-12.3-24.1-24.1-12.31,12.3c-5.38-3.15-11.11-5.48-17.01-7V8.69h-34.09v16.78c-5.83,1.55-11.5,3.9-16.82,7.05l-12.73-12.73-24.11,24.1,12.86,12.86c-3.06,5.29-5.33,10.91-6.82,16.69H8.69v34.09h16.93c1.54,5.79,3.86,11.41,6.97,16.69l-.14-.14-12.05,12.05,24.11,24.11,12.05-12.05-.13-.13c5.54,3.26,11.44,5.65,17.52,7.19h-.84v17.04h34.09v-17.04h-.34c5.9-1.49,11.64-3.79,17.04-6.91l12.85,12.85,24.1-24.11ZM52.92,52.77c-20.7,20.7-20.7,54.27,0,74.98,20.7,20.7,54.27,20.7,74.98,0,20.7-20.7,20.7-54.27,0-74.98-20.7-20.7-54.27-20.7-74.98,0Z"/></svg>