<?xml version="1.0" encoding="UTF-8"?>
<svg width="231px" height="219px" viewBox="0 0 231 219" version="1.1" xmlns="http://www.w3.org/2000/svg" xmlns:xlink="http://www.w3.org/1999/xlink">
    <title>a</title>
    <g id="Page-1" stroke="none" stroke-width="1" fill="none" fill-rule="evenodd">
        <g id="a" transform="translate(-83, -82)" fill-rule="nonzero">
            <polygon id="Path" fill="#161616" points="165.235 82.674 193.364 221.105 203.477 221.105 231.606 82.674 313.78 82.674 313.78 300.351 268.639 300.351 268.639 120.792 259.809 120.792 220.39 300.351 177.792 300.351 138.375 120.792 128.202 120.792 128.202 300.351 83.061 300.351 83.061 82.674"></polygon>
            <g id="Group">
                <polygon id="Path" fill="#9D9D9D" points="128.202 120.792 138.679 120.792 177.809 300.351 128.202 300.351"></polygon>
                <polygon id="Path" fill="#707070" points="165.235 82.674 193.364 221.105 203.478 221.105 231.606 82.674"></polygon>
                <polygon id="Path" fill="#CACACA" points="259.548 120.792 268.639 120.792 268.639 300.351 220.417 300.351"></polygon>
            </g>
        </g>
    </g>
</svg>