<svg id="Layer_1" data-name="Layer 1" xmlns="http://www.w3.org/2000/svg" viewBox="0 0 352.86 130.98"><g id="Mozilla-Festival_Horizontal-Lockup_B"><polygon points="78.89 67.14 68.6 67.14 73.72 76.07 84.01 76.07 78.89 67.14"/><polygon points="55.31 63.85 62.99 63.85 57.87 54.91 47.57 54.91 52.69 63.85 55.31 63.85"/><polygon points="55.18 79.23 47.5 79.23 52.62 88.17 62.91 88.17 57.79 79.23 55.18 79.23"/><polygon points="65.78 68.74 60.61 77.64 65.73 86.57 70.9 77.67 65.78 68.74"/><polygon points="78.91 63.89 84.08 54.99 73.78 54.99 68.61 63.89 78.91 63.89"/><polygon points="65.8 62.24 70.98 53.34 65.86 44.41 60.68 53.31 65.8 62.24"/><polygon points="62.35 43.98 63.05 42.76 52.76 42.76 47.58 51.66 57.88 51.66 62.35 43.98"/><polygon points="57.8 75.99 62.98 67.09 52.69 67.09 47.51 75.99 57.8 75.99"/><path d="M65.43,30.63A34.81,34.81,0,1,0,90,40.85,34.79,34.79,0,0,0,65.43,30.63ZM87.78,79.31H73.71l-7,12.1H50.75L42.81,77.62l7.07-12.18s-7-12.16-7-12.19,8-13.73,8-13.73H66.78l7,12.23h14l7.94,13.8Z"/><path d="M115,60.2a19.41,19.41,0,0,1-10-24.93l.09-.18A49,49,0,0,0,97,26.78l-.17.09a19.31,19.31,0,0,1-6.67,1.21,19.75,19.75,0,0,1-18-11.86L72,16a49.48,49.48,0,0,0-11.6-.17l-.09.17A19.55,19.55,0,0,1,42.45,27.39,19.44,19.44,0,0,1,35.26,26l-.17-.09a45.7,45.7,0,0,0-8.32,8l.09.18A19.63,19.63,0,0,1,16.21,58.82L16,58.9a50.42,50.42,0,0,0-.18,11.65l.18.09a19.58,19.58,0,0,1,10,25l-.09.17A50.58,50.58,0,0,0,34,104.1l.18,0a18.4,18.4,0,0,1,6.66-1.21A19.71,19.71,0,0,1,58.9,114.71l0,.17a49.48,49.48,0,0,0,11.6.17l.09-.17a19.63,19.63,0,0,1,25-10l.18.09a51.43,51.43,0,0,0,8.35-8.14l0-.17A19.55,19.55,0,0,1,114.79,72l.17-.09a49.48,49.48,0,0,0,.17-11.6ZM65.43,103.45a38,38,0,0,1,0-76A38.53,38.53,0,0,1,92.32,38.56a37.37,37.37,0,0,1,11.13,26.88A38,38,0,0,1,65.43,103.45Z"/><polygon points="82.77 63.72 81.71 65.54 86.83 74.47 92 65.57 86.88 56.64 82.77 63.72"/><path d="M0,131H131V0H0ZM118,73.41l-.13.91-1.86.77a16.31,16.31,0,0,0-8.88,20.61l.69,1.86-.56.7A52.66,52.66,0,0,1,97,108.21l-.73.52L94.4,108a15.66,15.66,0,0,0-6-1.17,16.36,16.36,0,0,0-14.89,9.44L72.71,118l-.91.09a51.07,51.07,0,0,1-6.32.39,53.63,53.63,0,0,1-7.92-.61l-.91-.13-.78-1.86a16.46,16.46,0,0,0-15.07-9.87,16.29,16.29,0,0,0-5.54,1l-1.86.7-.69-.57A54.1,54.1,0,0,1,22.75,97l-.56-.7L23,94.4A16.34,16.34,0,0,0,14.7,73.54l-1.82-.83-.09-.91A54.18,54.18,0,0,1,13,57.52l.13-.91L15,55.83a16.26,16.26,0,0,0,8.87-20.56l-.69-1.87.56-.73A53.28,53.28,0,0,1,34,22.71l.74-.52,1.86.78a15.76,15.76,0,0,0,6,1.17,16.32,16.32,0,0,0,14.9-9.44l.82-1.82.91-.08A52.52,52.52,0,0,1,73.44,13l.91.13L75.13,15A16.39,16.39,0,0,0,90.2,24.88a16.11,16.11,0,0,0,5.54-1l1.86-.69.69.56a52.71,52.71,0,0,1,10,10.22l.52.73L108,36.56a16.31,16.31,0,0,0,8.27,20.83l1.82.82.08.91A52.6,52.6,0,0,1,118,73.41Z"/><path d="M219.74,27c-3.89,0-6.31,2.89-6.31,7.89,0,4.6,2.12,8.13,6.25,8.13,3.94,0,6.54-3.18,6.54-8.25C226.22,29.39,223.33,27,219.74,27Z"/><path d="M323.9,40.35A2.77,2.77,0,0,0,327,43.41c2.71,0,5.59-1.94,5.77-6.36A29.16,29.16,0,0,0,329,36.7C326.25,36.7,323.9,37.46,323.9,40.35Z"/><path d="M140.51,60.72H352.86V0H140.51Zm61.78-12.48H191.16v-15c0-4.59-1.53-6.36-4.53-6.36-3.66,0-5.13,2.59-5.13,6.3v9.25H185v5.77H173.9v-15c0-4.59-1.53-6.36-4.53-6.36-3.65,0-5.13,2.59-5.13,6.3v9.25h5.07v5.77h-16.2V42.47h3.54v-15h-3.54V21.68h11.13v4a8.81,8.81,0,0,1,8.07-4.53c3.83,0,7.37,1.83,8.66,5.71a8.91,8.91,0,0,1,8.66-5.71c4.77,0,9.13,2.88,9.13,9.19V42.47h3.53Zm17.15.59c-8.19,0-13.84-5-13.84-13.49,0-7.77,4.71-14.19,14.25-14.19s14.2,6.42,14.2,13.84C234.05,43.47,227.92,48.83,219.44,48.83Zm42.84-.59H239.07l-.76-4,14.61-16.79h-8.31l-1.18,4.12L238,31l1-9.31h23.32l.59,4L248.09,42.47h8.6l1.23-4.12,6,.59Zm15.17,0h-8V38.7h8Zm0-17h-8V21.68h8Zm5,17L293.9,7.72h7.48L289.9,48.24Zm15.43,0L309.34,7.72h7.48L305.33,48.24Zm40.77.59c-3.53,0-5.48-2.06-5.83-5.3a9.62,9.62,0,0,1-8.54,5.3c-3.83,0-8.19-2.06-8.19-7.6,0-6.53,6.3-8.07,12.37-8.07a34.13,34.13,0,0,1,4.36.24v-.88c0-2.71-.06-6-4.36-6a8.29,8.29,0,0,0-4.06.76l-.86,3-6.07-.65,1-6.11c4.65-1.88,7-2.41,11.37-2.41,5.71,0,10.54,2.94,10.54,9V41.71c0,1.53.59,2.06,1.82,2.06a3.89,3.89,0,0,0,1.12-.18l.06,4A10.31,10.31,0,0,1,338.62,48.83Z"/><path d="M186,97.25q-1.86-2.91-6.06-2.91-4,0-5.91,2.7a13.52,13.52,0,0,0-2.31,6.3h15.84A9.42,9.42,0,0,0,186,97.25Z"/><path d="M290.36,106a16.89,16.89,0,0,0-5.91,1q-2.67,1-2.67,4.35,0,2.88,1.86,3.87a7.65,7.65,0,0,0,3.6,1,8.74,8.74,0,0,0,5.58-2.07,7.1,7.1,0,0,0,2.76-5.37v-2.46q-1.14-.12-2.46-.21T290.36,106Z"/><path d="M140.51,131H330.32V70.26H140.51ZM241.4,79.76h3.72V84.5H241.4Zm-74.12,15h-7v21.06h6.48v2.76H152v-2.76H157V94.76h-4V91.94h4V86.78q0-4.8,2.76-7.44A8.8,8.8,0,0,1,166,76.7a12.9,12.9,0,0,1,3.15.33,6.39,6.39,0,0,1,2.55,1.41l1,5.94-2.76.36-1.08-4.68a9.14,9.14,0,0,0-3.3-.48q-5.22,0-5.22,7.08v5.28h7Zm20.59,22.08a11.13,11.13,0,0,1-7.44,2.34,11.65,11.65,0,0,1-8.94-3.6q-3.36-3.6-3.36-10a15.71,15.71,0,0,1,3.24-10.23,10.63,10.63,0,0,1,8.7-4q5.46,0,8.19,3.57A13,13,0,0,1,191,103.1a17.26,17.26,0,0,1-.3,3H171.61q.12,4.8,2.46,7.47a8.31,8.31,0,0,0,6.6,2.67q6.3,0,7.8-5.76l2.76.66A9.5,9.5,0,0,1,187.87,116.84Zm23.4.12a13.15,13.15,0,0,1-7.77,2.22,19.41,19.41,0,0,1-5.55-.81,14.47,14.47,0,0,1-4.17-1.83l.72-5.64,2.7.24-.24,3.6a13.46,13.46,0,0,0,6.42,1.5,11.83,11.83,0,0,0,5.31-1.17,3.87,3.87,0,0,0,2.37-3.69,3.66,3.66,0,0,0-1.71-3.42,12.52,12.52,0,0,0-4.23-1.47q-2.52-.45-5-1a9.53,9.53,0,0,1-4.2-2A5.56,5.56,0,0,1,194.2,99q0-4.08,2.94-5.85a12.22,12.22,0,0,1,6.42-1.77,16.88,16.88,0,0,1,5.19.78,19.08,19.08,0,0,1,3.93,1.68l.6,6.12-2.76.36-.72-4.5a15.24,15.24,0,0,0-2.64-1.08,10.94,10.94,0,0,0-3.18-.42,9,9,0,0,0-4.56,1,3.53,3.53,0,0,0-1.74,3.3,3.36,3.36,0,0,0,1.68,3.21,13.13,13.13,0,0,0,4.2,1.35q2.52.42,5,1a9.47,9.47,0,0,1,4.17,2.1,6,6,0,0,1,1.68,4.68A6.92,6.92,0,0,1,211.27,117Zm16.52,2.22q-3.9,0-5.85-2.28a9.1,9.1,0,0,1-1.95-6.12v-16h-4.38V91.94H220V83.3h3.3v8.64h10.62v2.82H223.29v15.66a7.41,7.41,0,0,0,1.08,4.23,4.24,4.24,0,0,0,3.78,1.59,5,5,0,0,0,3.12-1q1.38-1.05,2-4.35l2.58.84Q234.69,119.18,227.79,119.18Zm22.25-.6h-13.2v-2.76h5V94.76h-5V91.94h8.34v23.88H250Zm27.68-23.82H274.3l-9.78,23.82h-2.58l-10.2-23.82H248.5V91.94h11.94v2.82h-5.16l8,19.2h.36L271,94.76h-4.86V91.94h11.58Zm22.42,24.42q-4.56,0-4.56-5.4v-.12A12.41,12.41,0,0,1,292,117.5a9.35,9.35,0,0,1-5.55,1.68,10.63,10.63,0,0,1-5.37-1.59q-2.73-1.59-2.73-5.85,0-5,4-6.63a22.79,22.79,0,0,1,8.46-1.59q1.26,0,2.49.09l2.31.15v-2.82a7.55,7.55,0,0,0-1.41-4.83q-1.41-1.77-5.07-1.77a11.91,11.91,0,0,0-5.4,1.2l-1.08,4.8-2.76-.36,1-5.94a10.56,10.56,0,0,1,4.05-2,18.49,18.49,0,0,1,4.77-.63q9.24,0,9.24,8.94v13q0,3.06,2.34,3.06a4.15,4.15,0,0,0,2-.42l.06,2.4A5.69,5.69,0,0,1,300.14,119.18Zm17.69-.6H304.69v-2.76h4.92V80.06h-5V77.3h8.28v38.52h4.92Z"/></g></svg>
