<?xml version="1.0" encoding="UTF-8"?>
<svg width="1725px" height="178px" viewBox="0 0 1725 178" version="1.1"
  xmlns="http://www.w3.org/2000/svg" xmlns:xlink="http://www.w3.org/1999/xlink">
  <g stroke="none" fill="none" fill-rule="nonzero">
    <path
      d="M62.743,8.778 L83.999,114.386 L91.641,114.386 L112.895,8.778 L174.988,8.778 L174.988,174.734 L141.462,174.734 L141.462,37.276 L131.924,37.276 L102.647,174.734 L71.01,174.734 L41.733,37.276 L34.178,37.276 L34.178,174.734 L0.652,174.734 L0.652,8.778 L62.745,8.778 L62.743,8.778 Z M259.554,43.657 C299.217,43.657 322.193,67.359 322.193,110.649 C322.193,153.939 299.217,177.642 259.554,177.642 C219.891,177.642 196.915,153.941 196.915,110.649 C196.915,67.357 219.891,43.657 259.554,43.657 M259.642,150.457 C277.282,150.457 285.625,140.922 285.625,119.945 L285.625,101.351 C285.625,80.374 277.282,70.839 259.642,70.839 C242.002,70.839 233.659,80.374 233.659,101.351 L233.659,119.945 C233.659,140.922 242.002,150.457 259.642,150.457 M335.914,149.897 L401.396,70.803 L337.59,70.803 L337.59,45.658 L441.522,45.658 L441.522,70.986 L377.093,149.59 L443.199,149.59 L443.199,174.735 L335.914,174.735 L335.914,149.897 Z M461.638,45.657 L510.251,45.657 L510.251,174.734 L476.725,174.734 L476.725,70.802 L461.638,70.802 L461.638,45.657 Z M476.725,8.778 L510.251,8.778 L510.251,33.923 L476.725,33.923 L476.725,8.778 Z M533.72,8.778 L580.657,8.778 L580.657,174.734 L547.131,174.734 L547.131,33.923 L533.72,33.923 L533.72,8.778 Z M604.126,8.778 L651.063,8.778 L651.063,174.734 L617.537,174.734 L617.537,33.923 L604.126,33.923 L604.126,8.778 Z M725.402,43.276 C744.489,43.276 757.049,52.697 760.675,69.127 L768.406,69.127 L768.406,45.659 L808.638,45.659 L808.638,70.804 L795.227,70.804 L795.227,149.591 L808.638,149.591 L808.638,174.736 L789.689,174.736 C777.935,174.736 768.406,165.208 768.406,153.453 L768.406,151.267 L760.675,151.267 C757.051,167.695 744.488,177.118 725.402,177.118 C695.203,177.118 673.944,151.509 673.944,110.198 C673.944,68.887 695.203,43.278 725.402,43.278 L725.402,43.276 Z M736.555,150.641 C753.796,150.641 761.7,141.062 761.7,119.988 L761.7,101.309 C761.7,80.236 753.798,70.656 736.555,70.656 C719.312,70.656 711.41,80.234 711.41,101.309 L711.41,119.988 C711.41,141.061 719.312,150.641 736.555,150.641"
      id="Shape" fill="#161616"></path>
    <path
      d="M861.301,8.66 L980.705,8.66 L980.705,35.863 L895.726,35.863 L895.726,77.028 L960.964,77.028 L960.964,103.028 L895.726,103.028 L895.726,174.766 L861.301,174.766 L861.301,8.66 L861.301,8.66 Z M996.113,159.72 C985.039,148.085333 979.502,131.675333 979.502,110.49 C979.502,78.712 985.039,72.898 996.113,61.261 C1007.18633,49.6263333 1022.67333,43.808 1042.574,43.808 C1061.99067,43.808 1077.03667,49.1856667 1087.712,59.937 C1098.384,70.6903333 1103.721,85.9366667 1103.721,105.676 L1103.721,116.99 L1000.687,116.99 L1000.687,95.805 L1092.407,95.805 L1070.501,108.805 L1070.501,102.546 C1070.501,90.832 1068.251,82.245 1063.76,76.787 C1059.26667,71.3316667 1052.205,68.6033333 1042.575,68.602 C1028.13,68.6 1025.882,71.332 1021.39,76.787 C1016.89667,82.245 1014.65,90.8313333 1014.65,102.546 L1014.65,117.471 C1014.65,129.187667 1016.89667,137.814 1021.39,143.35 C1025.881,148.887 1032.946,151.656 1042.575,151.656 C1047.87167,151.657333 1052.32533,150.895 1055.936,149.369 C1059.54667,147.845 1062.19467,146.119667 1063.88,144.193 C1065.565,142.267 1066.407,140.665 1066.407,139.379 L1066.407,138.416 L1100.592,138.416 C1096.89867,150.934667 1090.07767,160.524 1080.129,167.184 C1070.17567,173.844 1057.65733,177.174 1042.574,177.174 C1022.67333,177.174 1007.18633,171.357667 996.113,159.721 L996.113,159.72 Z M1134.172,167.785 C1124.783,161.526 1118.562,151.739 1115.515,138.416 L1148.977,138.416 L1148.977,139.379 C1148.97567,141.466333 1149.738,143.472667 1151.264,145.398 C1152.78667,147.324667 1155.39433,148.969667 1159.087,150.333 C1162.77767,151.697667 1167.51233,152.379667 1173.291,152.379 C1180.99433,152.379667 1186.892,151.216333 1190.984,148.889 C1195.077,146.565 1197.123,143.232 1197.123,138.899 C1197.12233,135.529 1195.87867,132.921 1193.392,131.075 C1190.90333,129.232333 1186.771,127.667667 1180.995,126.381 L1153.31,120.844 C1140.31,118.117333 1130.80133,113.904667 1124.784,108.206 C1118.76533,102.510667 1115.756,94.767 1115.756,84.975 C1115.756,71.6563333 1120.65133,61.4653333 1130.442,54.402 C1140.23,47.3413333 1154.27267,43.81 1172.57,43.81 C1189.098,43.81 1201.97733,46.901 1211.208,53.079 C1220.43467,59.259 1226.57333,69.0886667 1229.624,82.568 L1196.162,82.568 L1196.162,81.605 C1196.16133,79.6796667 1195.399,77.714 1193.875,75.708 C1192.34833,73.7033333 1189.82067,72.018 1186.292,70.652 C1182.76,69.291 1178.187,68.606 1172.57,68.606 C1165.026,68.606 1159.28867,69.7293333 1155.358,71.976 C1151.423,74.225 1149.46,77.595 1149.46,82.086 C1149.46,85.4566667 1150.66367,88.0646667 1153.071,89.91 C1155.477,91.7566667 1159.489,93.3213333 1165.107,94.604 L1192.792,100.141 C1205.95,102.870333 1215.53933,107.043 1221.56,112.659 C1227.57867,118.278333 1230.587,126.062333 1230.587,136.011 C1230.587,149.173 1225.652,159.323667 1215.782,166.463 C1205.912,173.607 1191.746,177.176 1173.293,177.176 C1156.601,177.176 1143.56133,174.046333 1134.174,167.787 L1134.172,167.785 Z M1236.602,46.215 L1328.803,46.215 L1328.803,70.048 L1236.602,70.048 L1236.602,46.215 Z M1266.212,169.47 C1262.68,165.942 1260.915,160.803 1260.915,154.063 L1260.915,9.623 L1294.377,9.623 L1294.377,150.934 L1328.803,150.934 L1328.803,174.767 L1281.618,174.767 C1274.87667,174.767 1269.74133,173.002333 1266.212,169.471 L1266.212,169.47 Z M1351.19,70.048 L1335.784,70.048 L1335.784,46.215 L1384.653,46.215 L1384.653,174.767 L1351.19,174.767 L1351.19,70.048 Z M1349.264,1.438 L1385.616,1.438 L1385.616,28.641 L1349.264,28.641 L1349.264,1.438 Z M1396.445,46.215 L1430.629,46.215 L1460.239,134.565 L1464.813,134.565 L1494.664,46.215 L1527.163,46.215 L1480.942,174.767 L1442.906,174.767 L1396.445,46.215 Z M1538.715,167.303 C1531.493,160.725 1527.882,151.737667 1527.882,140.341 C1527.882,128.627667 1531.77333,119.439667 1539.558,112.777 C1547.34,106.12 1558.855,102.065 1574.104,100.621 L1608.529,97.25 L1608.529,118.435 L1584.215,120.602 C1576.35033,121.406 1570.693,123.010667 1567.243,125.416 C1563.791,127.823333 1562.06567,131.354333 1562.067,136.009 L1562.067,138.175 C1562.067,142.670333 1563.95267,146.161333 1567.724,148.648 C1571.494,151.136 1576.75,152.379333 1583.492,152.378 C1591.67733,152.379333 1597.89633,150.654 1602.149,147.202 C1606.401,143.753333 1608.52767,138.738333 1608.529,132.157 L1608.529,93.398 C1608.529,85.055 1606.76,78.955 1603.232,75.102 C1599.70067,71.2506667 1594.164,69.325 1586.622,69.325 C1581.966,69.325 1578.035,70.01 1574.826,71.371 C1571.61467,72.7376667 1569.24733,74.3426667 1567.724,76.186 C1566.198,78.0326667 1565.43567,79.838 1565.437,81.602 L1565.437,82.565 L1531.494,82.565 C1534.541,69.727 1540.763,60.056 1550.151,53.557 C1559.53967,47.057 1571.93733,43.807 1587.344,43.807 C1605.15733,43.807 1618.67833,47.981 1627.907,56.325 C1637.13433,64.673 1641.749,76.8703333 1641.749,92.917 L1641.749,174.767 L1611.176,174.767 L1611.176,152.86 L1606.603,152.86 C1603.713,160.887 1599.098,166.943 1592.76,171.036 C1586.418,175.129333 1578.35367,177.175 1568.567,177.175 C1555.887,177.175 1545.938,173.888 1538.715,167.305 L1538.715,167.303 Z M1671.597,169.47 C1668.066,165.942 1666.301,160.803 1666.301,154.063 L1666.301,0.957 L1699.523,0.957 L1699.523,150.934 L1724.318,150.934 L1724.318,174.767 L1686.764,174.767 C1680.18067,174.767 1675.125,173.002333 1671.597,169.471 L1671.597,169.47 Z"
      id="Shape" fill="#000000"></path>
  </g>
</svg>