<?xml version="1.0" encoding="UTF-8"?>
<svg width="1025px" height="301px" viewBox="0 0 1025 301" version="1.1" xmlns="http://www.w3.org/2000/svg" xmlns:xlink="http://www.w3.org/1999/xlink">
    <title>mozilla-foundation</title>
    <g id="Page-1" stroke="none" stroke-width="1" fill="none" fill-rule="evenodd">
        <g id="mozilla-foundation" transform="translate(0.827, 0.175)" fill-rule="nonzero">
            <polygon id="Path" fill="#161616" points="51.6086663 -1.42108547e-14 69.2746746 87.3314396 75.6264636 87.3314396 93.2924719 -1.42108547e-14 144.900377 -1.42108547e-14 144.900377 137.577417 116.714504 137.577417 116.714504 24.125957 110.362715 24.125957 85.7499127 137.577417 59.1512255 137.577417 34.5384235 24.125957 28.1866344 24.125957 28.1866344 137.577417 0 137.577417 0 -1.42108547e-14"></polygon>
            <polygon id="Path" fill="#1F191A" points="276.303583 117.040623 330.095202 51.6415933 277.097177 51.6415933 277.097177 31.1047985 363.640682 31.1047985 363.640682 51.6415933 309.849064 117.040623 364.435037 117.040623 364.435037 137.577417 276.303583 137.577417"></polygon>
            <path d="M379.122978,31.1047985 L418.821659,31.1047985 L418.821659,137.577417 L390.635786,137.577417 L390.635786,51.6415933 L379.122978,51.6415933 L379.122978,31.1047985 L379.122978,31.1047985 Z M390.635786,-1.42108547e-14 L418.821659,-1.42108547e-14 L418.821659,20.5367948 L390.635786,20.5367948 L390.635786,-1.42108547e-14 Z" id="Shape" fill="#161616"></path>
            <polygon id="Path" fill="#1F191A" points="437.479849 -1.42108547e-14 477.178531 -1.42108547e-14 477.178531 137.577417 448.992657 137.577417 448.992657 20.5367948 437.479849 20.5367948"></polygon>
            <polygon id="Path" fill="#1F191A" points="495.836721 -1.42108547e-14 535.536163 -1.42108547e-14 535.536163 137.577417 507.349529 137.577417 507.349529 20.5367948 495.836721 20.5367948"></polygon>
            <path d="M596.076747,29.1107346 C611.758392,29.1107346 622.079669,36.8867432 625.056975,50.4454607 L631.408764,50.4454607 L631.408764,31.1047985 L664.954245,31.1047985 L664.954245,51.6415933 L653.441437,51.6415933 L653.441437,117.040623 L664.954245,117.040623 L664.954245,137.577417 L648.876184,137.577417 C637.562725,137.577417 631.409525,131.396507 631.409525,120.031336 L631.409525,118.236755 L625.057736,118.236755 C622.079669,131.794708 611.758392,139.571481 596.077508,139.571481 C571.265357,139.571481 553.798698,118.436238 553.798698,84.3407258 C553.798698,50.2452136 571.265357,29.1107346 596.077508,29.1107346 L596.076747,29.1107346 Z M604.413661,117.639071 C618.705186,117.639071 625.255564,109.66358 625.255564,92.1174987 L625.255564,76.5654816 C625.255564,59.0194005 618.705186,51.0439091 604.413661,51.0439091 C590.122135,51.0439091 583.570997,59.0194005 583.570997,76.5654816 L583.570997,92.1174987 C583.570997,109.66358 590.121375,117.639071 604.413661,117.639071 L604.413661,117.639071 Z" id="Shape" fill="#1F191A"></path>
            <polygon id="Path" fill="#F06C13" points="51.6086663 -1.42108547e-14 93.2924719 -1.42108547e-14 75.6264636 87.3314396 69.2746746 87.3314396"></polygon>
            <path d="M213.380698,117.639071 C228.0694,117.639071 235.016955,109.66358 235.016955,92.1174987 L235.016955,76.5654816 C235.016955,59.0194005 228.0694,51.0439091 213.380698,51.0439091 C198.691996,51.0439091 191.744441,59.0194005 191.744441,76.5654816 L191.744441,92.1174987 C191.744441,109.66358 198.691996,117.639071 213.380698,117.639071 L213.380698,117.639071 Z" id="Path" fill="#7DEDF6"></path>
            <path d="M213.380698,29.1107346 C245.933236,29.1107346 264.790776,48.6508796 264.790776,84.3407258 C264.790776,120.030572 245.933997,139.571481 213.380698,139.571481 C180.827399,139.571481 161.97062,120.031336 161.97062,84.3407258 C161.97062,48.6501153 180.827399,29.1107346 213.380698,29.1107346 Z M213.380698,117.639071 C228.0694,117.639071 235.016955,109.66358 235.016955,92.1174987 L235.016955,76.5654816 C235.016955,59.0194005 228.0694,51.0439091 213.380698,51.0439091 C198.691996,51.0439091 191.744441,59.0194005 191.744441,76.5654816 L191.744441,92.1174987 C191.744441,109.66358 198.691996,117.639071 213.380698,117.639071 L213.380698,117.639071 Z" id="Shape" fill="#161616"></path>
            <polygon id="Path" fill="#161616" points="276.303583 117.040623 330.095202 51.6415933 277.097177 51.6415933 277.097177 31.1047985 363.640682 31.1047985 363.640682 51.6415933 309.849064 117.040623 364.435037 117.040623 364.435037 137.577417 276.303583 137.577417"></polygon>
            <polygon id="Path" fill="#161616" points="379.122978 31.1047985 418.821659 31.1047985 418.821659 137.577417 390.635786 137.577417 390.635786 51.6415933 379.122978 51.6415933 379.122978 31.1047985"></polygon>
            <polygon id="Path" fill="#161616" points="437.479849 -1.42108547e-14 477.178531 -1.42108547e-14 477.178531 137.577417 448.992657 137.577417 448.992657 20.5367948 437.479849 20.5367948"></polygon>
            <polygon id="Path" fill="#161616" points="495.836721 -1.42108547e-14 535.536163 -1.42108547e-14 535.536163 137.577417 507.349529 137.577417 507.349529 20.5367948 495.836721 20.5367948"></polygon>
            <path d="M596.076747,29.1107346 C611.758392,29.1107346 622.079669,36.8867432 625.056975,50.4454607 L631.408764,50.4454607 L631.408764,31.1047985 L664.954245,31.1047985 L664.954245,51.6415933 L653.441437,51.6415933 L653.441437,117.040623 L664.954245,117.040623 L664.954245,137.577417 L648.876184,137.577417 C637.562725,137.577417 631.409525,131.396507 631.409525,120.031336 L631.409525,118.236755 L625.057736,118.236755 C622.079669,131.794708 611.758392,139.571481 596.077508,139.571481 C571.265357,139.571481 553.798698,118.436238 553.798698,84.3407258 C553.798698,50.2452136 571.265357,29.1107346 596.077508,29.1107346 L596.076747,29.1107346 Z M604.413661,117.639071 C618.705186,117.639071 625.255564,109.66358 625.255564,92.1174987 L625.255564,76.5654816 C625.255564,59.0194005 618.705186,51.0439091 604.413661,51.0439091 C590.122135,51.0439091 583.570997,59.0194005 583.570997,76.5654816 L583.570997,92.1174987 C583.570997,109.66358 590.121375,117.639071 604.413661,117.639071 L604.413661,117.639071 Z" id="Shape" fill="#161616"></path>
            <path d="M604.413661,117.639071 C618.705186,117.639071 625.255564,109.66358 625.255564,92.1174987 L625.255564,76.5654816 C625.255564,59.0194005 618.705186,51.0439091 604.413661,51.0439091 C590.122135,51.0439091 583.570997,59.0194005 583.570997,76.5654816 L583.570997,92.1174987 C583.570997,109.66358 590.121375,117.639071 604.413661,117.639071 L604.413661,117.639071 Z" id="Path" fill="#FF9E5F"></path>
            <polygon id="Path" fill="#20C376" points="277.097177 51.6415933 330.095202 51.6415933 276.303583 117.040623"></polygon>
            <polygon id="Path" fill="#F7EC36" points="85.7499127 137.577417 116.714504 137.577417 116.714504 24.125957 110.362715 24.125957"></polygon>
            <polygon id="Path" fill="#7DEDF6" points="28.1866344 24.125957 34.5384235 24.125957 59.1512255 137.577417 28.1866344 137.577417"></polygon>
            <polygon id="Path" fill="#161616" points="-6.66890787e-15 160.42699 98.4512081 160.42699 98.4512081 182.957849 28.3844621 182.957849 28.3844621 217.052597 82.1753194 217.052597 82.1753194 238.586806 28.3844621 238.586806 28.3844621 298.003643 -2.82942914e-14 298.003643 -2.82942914e-14 160.427754"></polygon>
            <path d="M148.272578,210.672204 C140.198927,210.672204 134.210837,212.96511 130.309828,217.550922 C126.404254,222.136734 124.453369,229.283722 124.453369,238.985007 L124.453369,250.549661 C124.453369,260.254003 126.404254,267.397934 130.309828,271.982982 C134.210837,276.568794 140.198927,278.862464 148.272578,278.862464 C156.346228,278.862464 162.297797,276.568794 166.137175,271.982982 C169.972748,267.397934 171.893198,260.254003 171.893198,250.549661 L171.893198,238.985007 C171.893198,229.283722 169.973509,222.136734 166.137175,217.550922 C162.297797,212.96511 156.341663,210.672204 148.272578,210.672204 L148.272578,210.672204 Z" id="Path" fill="#F7EC36"></path>
            <path d="M863.223955,210.672204 C855.150304,210.672204 849.162214,212.96511 845.261205,217.550922 C841.355631,222.136734 839.404746,229.283722 839.404746,238.985007 L839.404746,250.549661 C839.404746,260.254003 841.355631,267.397934 845.261205,271.982982 C849.162214,276.568794 855.150304,278.862464 863.223955,278.862464 C871.297605,278.862464 877.249173,276.568794 881.088551,271.982982 C884.924125,267.397934 886.844575,260.254003 886.844575,250.549661 L886.844575,238.985007 C886.844575,229.283722 884.924886,222.136734 881.088551,217.550922 C877.249173,212.96511 871.29304,210.672204 863.223955,210.672204 L863.223955,210.672204 Z" id="Path" fill="#7DEDF6"></path>
            <path d="M485.50327,210.672204 C477.692883,210.672204 471.93762,212.96511 468.234439,217.550922 C464.527453,222.136734 462.677004,229.214934 462.677004,238.785524 L462.677004,250.749143 C462.677004,260.318969 464.527453,267.397934 468.234439,271.982982 C471.93762,276.568794 477.692883,278.862464 485.50327,278.862464 C493.313658,278.862464 499.065877,276.568794 502.772101,271.982982 C506.474522,267.397934 508.329536,260.318969 508.329536,250.749143 L508.329536,238.785524 C508.329536,229.214934 506.473761,222.136734 502.772101,217.550922 C499.065877,212.96511 493.308331,210.672204 485.50327,210.672204 Z" id="Path" fill="#20C376"></path>
            <path d="M620.077045,236.79146 C620.077045,228.286308 618.489858,221.971644 615.313203,217.850528 C612.137308,213.731705 607.10716,211.668853 600.227323,211.668853 C593.347487,211.668853 588.318099,213.731705 585.141444,217.850528 C581.96631,221.972409 580.379124,228.287072 580.379124,236.79146 L580.379124,252.742443 C580.379124,261.250653 581.96631,267.56608 585.141444,271.684139 C588.317339,275.80602 593.345204,277.86505 600.227323,277.86505 C607.109443,277.86505 612.137308,275.80602 615.313203,271.684139 C618.489097,267.565316 620.077045,261.250653 620.077045,252.742443 L620.077045,236.79146 Z" id="Path" fill="#FF9E5F"></path>
            <path d="M669.102538,191.531789 L745.123896,191.531789 L745.123896,211.270652 L669.102538,211.270652 L669.102538,191.531789 Z M693.516752,293.61655 C690.605642,290.694623 689.150087,286.438225 689.150087,280.855763 L689.150087,161.224921 L716.740195,161.224921 L716.740195,278.263251 L745.124657,278.263251 L745.124657,298.002879 L706.221091,298.002879 C700.663656,298.002879 696.427101,296.542298 693.516752,293.61655 Z" id="Shape" fill="#161616"></path>
            <path d="M766.562326,211.270652 L753.857987,211.270652 L753.857987,191.531789 L794.152434,191.531789 L794.152434,298.002879 L766.562326,298.002879 L766.562326,211.269888 L766.562326,211.270652 Z M764.973618,154.445563 L794.946788,154.445563 L794.946788,176.976421 L764.973618,176.976421 L764.973618,154.445563 Z" id="Shape" fill="#161616"></path>
            <path d="M824.319627,285.541699 C815.055207,275.905379 810.424518,262.313033 810.424518,244.766952 C810.424518,227.220871 815.055207,213.631581 824.319627,203.992968 C833.581004,194.356649 846.550128,189.537725 863.224715,189.537725 C879.899303,189.537725 892.830383,194.356649 902.028607,203.992968 C911.22531,213.631581 915.824042,227.220871 915.824042,244.766952 C915.824042,262.313033 911.22531,275.905379 902.028607,285.541699 C892.830383,295.180312 879.897781,299.996943 863.224715,299.996943 C846.55165,299.996943 833.581004,295.180312 824.319627,285.541699 Z M881.08779,271.982982 C884.924886,267.397934 886.844575,260.254003 886.844575,250.549661 L886.844575,238.985007 C886.844575,229.283722 884.924886,222.136734 881.08779,217.550922 C877.248412,212.96511 871.2938,210.672204 863.223955,210.672204 C855.154109,210.672204 849.160692,212.96511 845.259683,217.550922 C841.355631,222.136734 839.404746,229.283722 839.404746,238.985007 L839.404746,250.549661 C839.404746,260.254003 841.355631,267.397934 845.259683,271.982982 C849.161453,276.568794 855.151065,278.862464 863.223955,278.862464 C871.296844,278.862464 877.247652,276.568794 881.08779,271.982982 Z" id="Shape" fill="#161616"></path>
            <path d="M930.907638,191.531789 L956.115445,191.531789 L956.115445,210.473485 L959.887866,210.473485 C962.399516,203.563431 966.204655,198.345541 971.300238,194.821344 C976.392017,191.300969 982.778807,189.537725 990.453758,189.537725 C1001.437,189.537725 1009.77315,192.861674 1015.46374,199.50728 C1021.15204,206.155179 1024,215.856464 1024,228.61725 L1024,298.002879 L996.409892,298.002879 L996.409892,233.800746 C996.409892,225.825255 994.886619,219.97758 991.843878,216.254665 C988.798093,212.534808 983.969577,210.672204 977.354525,210.672204 C970.869583,210.672204 966.070741,212.534808 962.963325,216.254665 C959.852866,219.97758 958.299158,225.825255 958.299158,233.800746 L958.299158,298.002879 L930.907638,298.002879 L930.907638,191.531789 L930.907638,191.531789 Z" id="Path" fill="#161616"></path>
            <path d="M109.36749,285.541699 C100.103069,275.905379 95.4739021,262.313033 95.4739021,244.766952 C95.4739021,227.220871 100.103069,213.631581 109.36749,203.992968 C118.628867,194.356649 131.599512,189.537725 148.272578,189.537725 C164.945643,189.537725 177.878245,194.356649 187.077991,203.992968 C196.273172,213.631581 200.873426,227.220871 200.873426,244.766952 C200.873426,262.313033 196.273933,275.905379 187.077991,285.541699 C177.878245,295.180312 164.945643,299.996943 148.272578,299.996943 C131.599512,299.996943 118.628867,295.180312 109.36749,285.541699 Z M166.137175,271.982982 C169.972748,267.397934 171.892437,260.254003 171.892437,250.549661 L171.892437,238.985007 C171.892437,229.283722 169.972748,222.136734 166.137175,217.550922 C162.297797,212.96511 156.341663,210.672204 148.272578,210.672204 C140.203493,210.672204 134.210837,212.96511 130.309828,217.550922 C126.404254,222.136734 124.453369,229.283722 124.453369,238.985007 L124.453369,250.549661 C124.453369,260.254003 126.404254,267.397934 130.309828,271.982982 C134.211598,276.568794 140.199688,278.862464 148.272578,278.862464 C156.345467,278.862464 162.297797,276.568794 166.137175,271.982982 Z" id="Shape" fill="#161616"></path>
            <path d="M246.920092,273.279238 C249.962072,277.002153 254.725914,278.862464 261.212378,278.862464 C267.82743,278.862464 272.655185,277.002153 275.701731,273.279238 C278.745233,269.55938 280.266223,263.709412 280.266223,255.733921 L280.266223,191.531789 L242.35636,191.531789 L242.35636,255.733921 C242.35636,263.709412 243.874307,269.55938 246.920092,273.279238 L246.920092,273.279238 Z" id="Path" fill="#EA3E00"></path>
            <path d="M223.300232,290.027387 C217.609644,283.382546 214.765491,273.678203 214.765491,260.917417 L214.765491,191.531789 L242.355599,191.531789 L242.355599,255.733921 C242.355599,263.709412 243.874307,269.55938 246.920092,273.279238 C249.962072,277.002153 254.725914,278.862464 261.211617,278.862464 C267.826669,278.862464 272.655185,277.002153 275.70097,273.279238 C278.744472,269.55938 280.265462,263.709412 280.265462,255.733921 L280.265462,191.531789 L307.85557,191.531789 L307.85557,298.002879 L282.647764,298.002879 L282.647764,279.061182 L278.876864,279.061182 C273.715846,293.018101 263.523918,299.996178 248.30945,299.996178 C237.323169,299.996178 228.987777,296.675286 223.299471,290.026623 L223.300232,290.027387 Z" id="Path" fill="#161616"></path>
            <path d="M387.45,216.25543 C384.404215,212.535572 379.575699,210.672968 372.960647,210.672968 C366.475705,210.672968 361.677624,212.535572 358.569447,216.25543 C355.458227,219.978345 353.904519,225.826019 353.904519,233.801511 L353.904519,298.003643 L392.015253,298.003643 L392.015253,233.801511 C392.015253,225.826019 390.492741,219.978345 387.45,216.25543 Z" id="Path" fill="#FF9E5F"></path>
            <path d="M991.944313,216.25543 C988.898529,212.535572 984.070012,210.672968 977.45496,210.672968 C970.970018,210.672968 966.171937,212.535572 963.06376,216.25543 C959.95254,219.978345 958.398833,225.826019 958.398833,233.801511 L958.398833,298.003643 L996.509567,298.003643 L996.509567,233.801511 C996.509567,225.826019 994.987055,219.978345 991.944313,216.25543 Z" id="Path" fill="#EA3E00"></path>
            <path d="M326.51376,191.531789 L351.721567,191.531789 L351.721567,210.473485 L355.493988,210.473485 C358.005638,203.563431 361.810777,198.345541 366.90636,194.821344 C371.998139,191.300969 378.384929,189.537725 386.05988,189.537725 C397.043119,189.537725 405.379271,192.861674 411.069859,199.50728 C416.758165,206.155179 419.606122,215.856464 419.606122,228.61725 L419.606122,298.002879 L392.016014,298.002879 L392.016014,233.800746 C392.016014,225.825255 390.492741,219.97758 387.45,216.254665 C384.404215,212.534808 379.575699,210.672204 372.960647,210.672204 C366.475705,210.672204 361.676863,212.534808 358.569447,216.254665 C355.458988,219.97758 353.90528,225.825255 353.90528,233.800746 L353.90528,298.002879 L326.51376,298.002879 L326.51376,191.531789 L326.51376,191.531789 Z" id="Path" fill="#161616"></path>
            <path d="M453.347909,293.317708 C447.125469,288.865648 442.296952,282.485255 438.857034,274.176528 C435.414072,265.870858 433.696015,256.067157 433.696015,244.766952 C433.696015,233.466746 435.382876,223.666866 438.758881,215.357375 C442.133364,207.051705 446.927641,200.671312 453.148559,196.21696 C459.366434,191.764901 466.711166,189.537725 475.181233,189.537725 C482.723031,189.537725 489.041341,191.232182 494.136925,194.621862 C499.228704,198.011541 502.902211,202.831229 505.152881,209.077105 L509.12313,209.077105 C508.592799,199.905481 508.329536,192.263226 508.329536,186.148045 L508.329536,154.047361 L535.919644,154.047361 L535.919644,298.003643 L510.710316,298.003643 L510.710316,278.662981 L506.939417,278.662981 C504.290048,285.44234 500.255886,290.695387 494.831604,294.415245 C489.404279,298.135103 482.853901,299.997707 475.181233,299.997707 C466.844319,299.997707 459.565784,297.773588 453.347909,293.318472 L453.347909,293.317708 Z M502.772101,271.982982 C506.474522,267.397934 508.329536,260.318969 508.329536,250.749143 L508.329536,238.785524 C508.329536,229.214934 506.474522,222.136734 502.772101,217.550922 C499.065877,212.96511 493.309092,210.672204 485.50327,210.672204 C477.697448,210.672204 471.938381,212.96511 468.234439,217.550922 C464.528214,222.136734 462.677004,229.214934 462.677004,238.785524 L462.677004,250.749143 C462.677004,260.318969 464.528214,267.397934 468.234439,271.982982 C471.938381,276.568794 477.693644,278.862464 485.50327,278.862464 C493.312897,278.862464 499.065877,276.568794 502.772101,271.982982 Z" id="Shape" fill="#161616"></path>
            <path d="M568.866316,293.417067 C563.042575,289.030738 558.5108,282.684738 555.270231,274.376011 C552.026619,266.070341 550.406715,256.20091 550.406715,244.767716 C550.406715,233.334522 552.026619,223.468148 555.270231,215.159421 C558.5108,206.853751 563.042575,200.504694 568.866316,196.118365 C574.687775,191.732036 581.502176,189.539253 589.311803,189.539253 C596.720448,189.539253 602.839409,191.566946 607.67173,195.620804 C612.500246,199.676955 615.775815,205.490236 617.496916,213.066762 L623.849466,213.066762 L623.849466,191.533317 L659.576377,191.533317 L659.576377,212.070112 L648.460746,212.070112 L648.460746,277.468377 L659.576377,277.468377 L659.576377,298.005172 L641.513952,298.005172 C635.690211,298.005172 631.29235,296.510197 628.315044,293.519483 C625.337738,290.52877 623.849466,286.111104 623.849466,280.260372 L623.849466,276.472491 L617.496916,276.472491 C615.776576,284.049017 612.500246,289.865355 607.67173,293.918449 C602.839409,297.9746 596.720448,300 589.311803,300 C581.502176,300 574.687775,297.806453 568.866316,293.420124 L568.866316,293.417067 Z M615.313203,271.684139 C618.489858,267.56608 620.077045,261.250653 620.077045,252.742443 L620.077045,236.79146 C620.077045,228.286308 618.489858,221.971644 615.313203,217.849764 C612.138069,213.731705 607.107921,211.668089 600.228084,211.668089 C593.348248,211.668089 588.31886,213.73094 585.142966,217.849764 C581.967832,221.971644 580.380646,228.286308 580.380646,236.79146 L580.380646,252.742443 C580.380646,261.250653 581.967832,267.56608 585.142966,271.684139 C588.319621,275.80602 593.346726,277.86505 600.228084,277.86505 C607.109443,277.86505 612.13883,275.80602 615.313203,271.684139 Z" id="Shape" fill="#161616"></path>
            <rect id="Rectangle" fill="#EA3E00" x="716.740195" y="211.270652" width="28.3844621" height="66.9933633"></rect>
        </g>
    </g>
</svg>